<svg width="60" height="60" viewBox="0 0 60 60" fill="none" xmlns="http://www.w3.org/2000/svg">
<path d="M16.4516 8.87246e-05C14.8597 8.87246e-05 13.5503 1.30758 13.5503 2.89952V3.49495L6.34324 11.6073H2.907C1.31507 11.6073 0 12.9242 0 14.5161V22.2525C1.93919e-05 23.8444 1.31507 25.1595 2.907 25.1595H10.6508C11.9009 25.1595 12.9646 24.3432 13.3688 23.224H14.5161V48.5441C14.0073 48.7002 13.5348 48.9658 13.1515 49.3492L10.6508 51.8555C10.0315 52.4749 9.67931 53.3158 9.67931 54.1917V58.0646C9.67931 59.1221 10.5573 60 11.6148 60H29.0323C30.0897 60 30.9677 59.1221 30.9677 58.0646V54.1917C30.9677 53.3158 30.6232 52.4749 30.0038 51.8555L27.5031 49.3492C27.1182 48.9643 26.6422 48.7001 26.1309 48.5441V23.224H44.5199V26.1234C44.5179 26.6581 44.9492 27.0931 45.4839 27.095H50.3264V33.8672H48.3909C47.3334 33.8672 46.4554 34.7471 46.4554 35.8046V37.7401C46.4554 38.5267 46.6385 39.3009 46.9903 40.0045L48.062 42.1478C48.4902 43.0043 49.3687 43.5484 50.3264 43.5484V45.4839C50.3283 46.0158 50.7604 46.446 51.2922 46.4479C52.6398 46.4478 53.7134 47.5215 53.7134 48.8691C53.7134 50.2168 52.6398 51.2847 51.2922 51.2847C49.9446 51.2847 48.8766 50.2168 48.8766 48.8691C48.8788 48.3317 48.4426 47.8955 47.9051 47.8976C47.3704 47.8995 46.939 48.3345 46.9411 48.8691C46.9412 51.2628 48.8986 53.2202 51.2922 53.2202C53.6858 53.2202 55.6489 51.2628 55.6489 48.8691C55.6489 46.8527 54.1334 45.3999 52.2637 44.9112V43.5484C53.2213 43.5484 54.0998 43.0043 54.5281 42.1478L55.5998 40.0045C55.9516 39.3009 56.1347 38.5267 56.1347 37.7401V35.8046C56.1347 34.7471 55.2567 33.8672 54.1992 33.8672H52.2637V27.095H57.0987C57.6333 27.093 58.0666 26.6581 58.0645 26.1234V23.224H59.036C59.5707 23.2221 60.002 22.7871 60 22.2525V14.5161C60.002 13.9815 59.5707 13.5466 59.036 13.5447H58.2233L27.1024 3.16977V2.89943C27.1024 1.30749 25.7874 0 24.1954 0L16.4516 8.87246e-05ZM16.4516 1.93553H24.1954C24.7414 1.93553 25.167 2.35358 25.167 2.89952V5.8009C25.167 6.34684 24.7414 6.77235 24.1954 6.77235H16.4516C15.9057 6.77235 15.4877 6.34684 15.4876 5.8009V2.89952C15.4877 2.35358 15.9057 1.93553 16.4516 1.93553ZM27.1024 5.21115L52.1087 13.5447H26.1309V7.94617C26.7221 7.41198 27.1024 6.65031 27.1024 5.8009V5.21115ZM13.607 6.34709C13.7288 6.97446 14.0587 7.52635 14.5161 7.94236V13.5447H13.3707C12.967 12.4246 11.9015 11.6073 10.6508 11.6073H8.9346L13.607 6.34709ZM16.4516 8.70787H24.1954V13.5447H16.4516V8.70787ZM2.907 13.5447H5.80645V18.3797H1.93548V14.5161C1.93548 13.9703 2.36109 13.5447 2.907 13.5447ZM7.74382 13.5447H10.6508C11.1968 13.5447 11.6148 13.9702 11.6148 14.5161V18.3797H7.74382V13.5447ZM13.5503 15.4801H15.8562L18.7594 21.2885H13.5503V15.4801ZM18.0223 15.4801H22.6304L20.3226 20.0939L18.0223 15.4801ZM25.7586 15.4801H30.3742L28.0664 20.0939L25.7586 15.4801ZM33.5043 15.4801H38.1124L35.8102 20.0939L33.5043 15.4801ZM41.2481 15.4801H45.8562L43.554 20.0882L41.2481 15.4801ZM48.9844 15.4801H53.6L51.2922 20.0939L48.9844 15.4801ZM55.7586 15.4801H58.0645V21.2885H52.8553L55.7586 15.4801ZM24.1954 16.6729L26.5033 21.2885H21.8876L24.1954 16.6729ZM31.9393 16.6729L34.2471 21.2885H29.6314L31.9393 16.6729ZM47.4193 16.6729L49.7272 21.2885H45.1172L47.4193 16.6729ZM39.6831 16.6816L41.9834 21.2896H37.3752L39.6831 16.6816ZM1.93548 20.3184H11.6148V22.2539C11.6148 22.7998 11.1968 23.2254 10.6508 23.2254H2.907C2.36108 23.2254 1.93549 22.7998 1.93548 22.2539V20.3184ZM17.6537 23.2254H24.1954V26.4972L17.6537 23.2254ZM46.4554 23.2254H56.1347V25.1609H46.4554V23.2254ZM16.4516 24.7885L22.8024 27.962L16.4516 30.5042V24.7885ZM24.1954 29.493V34.3733L18.0941 31.9332L24.1954 29.493ZM16.4516 33.3621L22.5529 35.806L16.4516 38.248V33.3621ZM48.3909 35.806H54.1992V37.7415C54.1992 38.2277 54.0802 38.7072 53.8628 39.1421L52.7986 41.278C52.6964 41.4823 52.4923 41.6126 52.2637 41.6126H50.3264C50.0978 41.6126 49.8937 41.4824 49.7915 41.278L48.7198 39.1421C48.5023 38.7072 48.3909 38.2277 48.3909 37.7415V35.806ZM24.1954 37.2368V42.1171L18.0941 39.677L24.1954 37.2368ZM16.4516 41.1059L22.5586 43.5498L16.4516 45.9919V41.1059ZM24.1954 44.9731V48.3848L16.4516 48.2278L24.1954 44.9731ZM15.4876 50.3221H25.167C25.5303 50.3221 25.874 50.464 26.1309 50.7209L28.6315 53.2216C28.8885 53.4783 29.0323 53.8298 29.0323 54.1932V58.066H11.6148V54.1932C11.6148 53.83 11.7586 53.4785 12.0155 53.2216L14.5161 50.7209C14.773 50.4642 15.1243 50.3221 15.4876 50.3221Z" fill="white"/>
</svg>
