<svg width="64" height="64" viewBox="0 0 64 64" fill="none" xmlns="http://www.w3.org/2000/svg">
<path d="M7.90161 9.8773V1.97543C7.90161 0.883428 8.78503 0 9.8773 0C10.969 0 11.8525 0.883428 11.8525 1.97543V9.8773C11.8525 10.969 10.969 11.8525 9.8773 11.8525C8.78503 11.8526 7.90161 10.969 7.90161 9.8773ZM41.4841 11.8526C42.5756 11.8526 43.4596 10.9692 43.4596 9.87743V1.97543C43.4596 0.883428 42.5756 0 41.4841 0C40.3921 0 39.508 0.883428 39.508 1.97543V9.8773C39.508 10.969 40.3921 11.8526 41.4841 11.8526ZM63.2132 47.4096C63.2132 56.1379 56.1375 63.2135 47.4099 63.2135C38.683 63.2135 31.6067 56.1379 31.6067 47.4096C31.6067 38.6827 38.6828 31.6067 47.4099 31.6067C56.1375 31.6067 63.2132 38.6826 63.2132 47.4096ZM59.2629 47.4096C59.2629 40.8747 53.9462 35.5573 47.41 35.5573C40.8744 35.5573 35.5577 40.8745 35.5577 47.4096C35.5577 53.9459 40.8744 59.2625 47.41 59.2625C53.9462 59.2625 59.2629 53.9459 59.2629 47.4096ZM15.8035 23.7051H7.90161V31.6067H15.8035V23.7051ZM7.90161 43.4593H15.8035V35.5573H7.90161V43.4593ZM19.7541 31.6067H27.6561V23.7051H19.7541V31.6067ZM19.7541 43.4593H27.6561V35.5573H19.7541V43.4593ZM3.951 47.0168V19.7541H47.41V27.6559H51.361V12.2463C51.361 9.84642 49.447 7.90161 47.0822 7.90161H45.4346V9.87743C45.4346 12.0532 43.6633 13.8282 41.4842 13.8282C39.3045 13.8282 37.5334 12.0532 37.5334 9.87743V7.90161H13.8278V9.87743C13.8278 12.0532 12.0569 13.8282 9.87743 13.8282C7.69746 13.8282 5.92643 12.0532 5.92643 9.87743V7.90161H4.28074C1.9159 7.90161 0 9.84642 0 12.2463V47.017C0 49.4089 1.9159 51.3613 4.28074 51.3613H27.6561V47.4098H4.28074C4.10173 47.4096 3.951 47.2248 3.951 47.0168ZM39.508 31.6067V23.7051H31.6068V31.6067H39.508ZM53.3363 47.4096H47.4099V41.4832C47.4099 40.3918 46.5265 39.5084 45.4345 39.5084C44.3425 39.5084 43.4596 40.3918 43.4596 41.4832V49.3857C43.4596 50.4772 44.3425 51.3612 45.4345 51.3612H53.3363C54.4283 51.3612 55.3118 50.4772 55.3118 49.3857C55.3118 48.2937 54.4283 47.4096 53.3363 47.4096Z" fill="white"/>
</svg>
