<svg width="52" height="52" viewBox="0 0 52 52" fill="none" xmlns="http://www.w3.org/2000/svg">
<path d="M48.0198 8.66667L33.8 22.7175V8.66667H30.0598L16.4667 22.4539V0H0V52H52V8.66667H48.0198ZM48.5333 48.5333H3.46667V3.46667H13V26.8667H16.9843L30.3333 13.327V26.8667H34.5328L48.5333 13.0325V48.5333Z" fill="white"/>
<path d="M13 33.8V34.6666H16.4667V33.8V31.2H13V33.8Z" fill="white"/>
<path d="M16.4667 39H13V42.4667H16.4667V39Z" fill="white"/>
<path d="M21.6665 33.8V34.6666H25.1332V33.8V31.2H21.6665V33.8Z" fill="white"/>
<path d="M25.1332 39H21.6665V42.4667H25.1332V39Z" fill="white"/>
<path d="M30.3335 33.8V34.6666H33.8002V33.8V31.2H30.3335V33.8Z" fill="white"/>
<path d="M33.8002 39H30.3335V42.4667H33.8002V39Z" fill="white"/>
<path d="M42.4667 31.2H39V34.6666H42.4667V31.2Z" fill="white"/>
<path d="M42.4667 39H39V42.4667H42.4667V39Z" fill="white"/>
</svg>
