<svg width="73" height="73" viewBox="0 0 73 73" fill="none" xmlns="http://www.w3.org/2000/svg">
<path d="M67.9779 46.4596L65.9974 42.0239L57.391 46.0809L41.2504 36.4978L41.6382 36.2696L57.391 26.9193L65.9974 30.9761L67.9779 26.5406L62.4335 23.9257L68.4343 20.3616L66.0614 16.136L60.0606 19.7001L60.6309 13.4573L55.9033 13.0009L55.0181 22.6891L39.2608 32.0439L38.8774 32.2721V13.1106L46.5942 7.4748L43.8469 3.4955L38.8774 7.12342V0H34.127V7.12342L29.1529 3.4955L26.4102 7.4748L34.127 13.1106V32.2721L33.7391 32.0439L17.9864 22.6891L17.1011 13.0009L12.3735 13.4573L12.9438 19.7001L6.94299 16.136L4.56543 20.3616L10.5709 23.9257L5.02649 26.5406L7.00699 30.9761L15.6134 26.9193L31.3662 36.2696L31.754 36.4978L15.6134 46.0809L7.00699 42.0239L5.02649 46.4596L10.5709 49.0743L4.56543 52.6338L6.94299 56.864L12.9438 53.3001L12.3735 59.5426L17.1011 59.9945L17.9864 50.3065L34.127 40.728V59.8896L26.4102 65.5208L29.1529 69.5045L34.127 65.8721V73H38.8774V65.8721L43.8469 69.5045L46.5942 65.5208L38.8774 59.8896V40.728L55.0181 50.3065L55.9033 59.9945L60.6309 59.5426L60.0606 53.3001L66.0614 56.864L68.4343 52.6338L62.4335 49.0743L67.9779 46.4596Z" fill="white"/>
</svg>
