<svg width="64" height="57" viewBox="0 0 64 57" fill="none" xmlns="http://www.w3.org/2000/svg">
<path fill-rule="evenodd" clip-rule="evenodd" d="M63.4615 45.4355C61.4532 47.519 56.3716 52.7748 52.1834 57L34.6558 38.2664L45.1502 27.772L63.4615 45.4355ZM30.8924 34.5043L41.3868 24.0099C41.3868 24.0099 36.0571 19.9431 36.548 17.403C37.0389 14.8628 38.1473 11.271 45.8667 8.0843C53.5847 4.8989 60.7855 4.61124 60.7855 4.61124L61.0441 1.13159C61.0441 1.13159 43.3041 -1.54841 33.9327 1.78081C24.5612 5.11003 13.9613 17.6431 13.9613 17.6431C13.9613 17.6431 15.81 23.7038 12.6431 26.872C9.47482 30.0403 5.21664 26.3878 5.21664 26.3878L0.359375 32.5553L12.6167 44.8113L18.7724 39.9435C18.7724 39.9435 15.8588 35.5797 18.7381 32.967C24.9333 27.3444 30.8924 34.5043 30.8924 34.5043Z" fill="white"/>
</svg>
