<?xml version="1.0" encoding="utf-8"?>
<!-- Generator: Adobe Illustrator 24.0.1, SVG Export Plug-In . SVG Version: 6.00 Build 0)  -->
<svg version="1.1" id="Layer_1" xmlns="http://www.w3.org/2000/svg" xmlns:xlink="http://www.w3.org/1999/xlink" x="0px" y="0px"
	 viewBox="0 0 297.64 70.87" style="enable-background:new 0 0 297.64 70.87;" xml:space="preserve">
<style type="text/css">
	.st0{fill:#FFFFFF;}
	.st1{fill:#C6C6C6;}
	.st2{fill:#3C3C3B;}
</style>
<g>
	<g>
		<path class="st0" d="M75.41,25.48h-5.3v22.18h-3.84V21.54c0,0,0.39,0,9.14,0V25.48z"/>
		<path class="st0" d="M75.76,44.15c0,0,2.03,0.43,2.06-1.92l0.53-20.69h9.28v26.13H83.8V25.48h-1.6l-0.53,17.35
			c-0.07,2.81-1.35,5.33-5.9,5.08V44.15z"/>
		<path class="st0" d="M89.42,47.67l3.95-26.13h4.69L102,47.67h-3.73l-0.71-5.33h-3.7l-0.71,5.33H89.42z M95.92,30.03l-0.11-1.39
			H95.6l-0.11,1.39l-1.1,8.25h2.63L95.92,30.03z"/>
		<path class="st0" d="M103.78,47.67V21.54c0,0,1.92,0,3.38,0c4.59,0,7,1.74,7,6.93c0,2.42-0.53,3.8-2.38,5.4
			c0,0,2.67,1.21,2.67,6.4c0,3.84-1.35,7.22-5.94,7.4H103.78z M107.62,25.34v6.97c0.71,0,2.84,0.11,2.84-3.48
			C110.46,25.23,108.33,25.34,107.62,25.34z M107.62,35.83v8.04c0.71,0,2.84,0.28,2.84-4.02C110.46,35.54,108.33,35.83,107.62,35.83
			z"/>
		<path class="st0" d="M115.37,25.48v-3.95h11.09v3.95h-3.63v22.18H119V25.48H115.37z"/>
		<path class="st0" d="M127.96,21.54h8.78v3.95h-4.94v6.86h3.56v4.2h-3.56v7.18h4.94v3.95h-8.78V21.54z"/>
		<path class="st0" d="M141.5,47.67h-3.77l4.23-13.72l-4.16-12.41h3.77l2.1,6.61l0.11,0.32h0.14l0.11-0.32l2.1-6.61h3.77
			l-4.16,12.41l4.23,13.72h-3.77l-2.2-7.79l-0.07-0.32h-0.14l-0.07,0.32L141.5,47.67z"/>
		<path class="st0" d="M155.51,21.54v8.71v1.14h0.14l0.18-1.14l3.2-8.71h3.73l-3.52,8.6l3.98,17.53h-3.73l-2.67-11.38l-0.11-0.53
			h-0.11l-0.21,0.53l-0.89,2.13v9.24h-3.84c0-8.18,0-26.13,0-26.13H155.51z"/>
		<path class="st0" d="M169.87,47.95c-5.16,0-5.12-5.65-5.12-5.65V26.9c0,0-0.04-5.65,5.12-5.65s5.12,5.65,5.12,5.65V42.3
			C174.99,42.3,175.03,47.95,169.87,47.95z M169.87,24.98c-1.35,0-1.28,1.92-1.28,1.92V42.3c0,0-0.07,1.92,1.28,1.92
			s1.28-1.92,1.28-1.92V26.9C171.15,26.9,171.22,24.98,169.87,24.98z"/>
		<path class="st0" d="M184.41,36.29h-2.99v11.38h-3.84c0,0,0-25.95,0-26.13h3.84v10.81h2.99V21.54h3.84v26.13h-3.84V36.29z"/>
		<path class="st0" d="M201.09,38.71v3.59c0,0,0.04,5.65-5.12,5.65s-5.12-5.65-5.12-5.65V26.9c0,0-0.04-5.65,5.12-5.65
			s5.12,5.65,5.12,5.65v3.59h-3.59V26.9c0,0,0.14-1.92-1.46-1.92c-1.35,0-1.35,1.92-1.35,1.92V42.3c0,0,0,1.92,1.35,1.92
			c1.6,0,1.46-1.92,1.46-1.92v-3.59H201.09z"/>
		<path class="st0" d="M202.05,25.48v-3.95h11.09v3.95h-3.63v22.18h-3.84V25.48H202.05z"/>
		<path class="st0" d="M214.63,21.54c0,0,3.66,0,3.84,0c3.34,0,6.76,1.81,6.76,7.82c0,6.01-3.41,7.86-6.76,7.86v10.45h-3.84V21.54z
			 M218.47,33.3c2.42,0,2.88-0.89,2.88-3.8c0-2.92-0.46-4.05-2.88-4.05V33.3z"/>
		<path class="st0" d="M226.9,44.68c0,0,0.28,0.07,0.85,0.07c1.49-0.14,1.96-1.78,1.96-3.2l-3.66-20.02h3.88l1.96,14.44l0.07,0.99
			h0.14l0.07-0.99l1.6-14.44h3.52l-3.09,20.91c-0.36,2.7-2.84,5.51-5.69,5.51c-0.39,0-1.6-0.07-1.6-0.07V44.68z"/>
		<path class="st0" d="M243.43,21.54v8.71v1.14h0.14l0.18-1.14l3.2-8.71h3.73l-3.52,8.6l3.98,17.53h-3.73l-2.67-11.38l-0.11-0.53
			h-0.11l-0.21,0.53l-0.89,2.13v9.24h-3.84c0-8.18,0-26.13,0-26.13H243.43z"/>
		<path class="st0" d="M261.67,47.67h-8.75V21.54h3.84v22.19h2.99V21.54h3.84v22.19h1.92v8.36h-3.84V47.67z"/>
		<path class="st0" d="M270.34,47.67h-3.41V21.54h3.52v13.62v1.21h0.21l0.32-1.21l3.73-13.62h3.41v26.13h-3.52V34.05v-1.21h-0.21
			l-0.32,1.21L270.34,47.67z"/>
		<path class="st0" d="M280.62,47.67l2.45-12.66c-1.46-1-2.13-3.34-2.13-5.94c0-4.91,1.99-7.54,6.54-7.54h3.84v26.13h-3.84V36.65
			h-1.03l-1.99,11.02H280.62z M287.48,33.09v-7.75c-1.07,0-2.84,0.14-2.84,3.88C284.64,32.95,286.41,33.09,287.48,33.09z"/>
	</g>
	<g>
		<polygon class="st0" points="32.47,68.09 19.11,60.92 19.11,29.3 32.47,36.47 		"/>
		<polygon class="st0" points="34.27,68.09 47.63,60.92 47.63,29.3 34.27,36.47 		"/>
	</g>
	<polygon class="st0" points="34.23,6.59 33.37,6.1 32.51,6.59 5.86,21.67 5.86,47.52 15.64,52.76 15.64,26.89 33.37,16.85 
		51.1,26.89 51.1,52.76 60.88,47.52 60.88,21.67 	"/>
	<polygon class="st1" points="295.16,54.73 66.29,54.73 41.38,68.09 295.16,68.09 	"/>
	<g>
		<path class="st2" d="M66.56,59.2v1.58c0,0.7-0.03,1.17-0.06,1.78h0.04c0.24-0.52,0.36-0.84,0.6-1.3l1.08-2.06h1.35v4.41h-1.06
			v-1.57c0-0.71,0.03-1.03,0.07-1.86h-0.04c-0.22,0.52-0.36,0.84-0.58,1.27c-0.33,0.65-0.74,1.45-1.12,2.17H65.5V59.2H66.56z"/>
		<path class="st2" d="M73.86,60.98h0.52c0.62,0,0.97-0.24,0.97-0.56c0-0.32-0.3-0.52-0.8-0.52c-0.37,0-0.78,0.13-1.09,0.31
			l-0.24-0.66c0.49-0.29,1.09-0.43,1.65-0.43c0.75,0,1.66,0.29,1.66,1.17c0,0.56-0.52,0.89-0.97,0.99v0.03
			c0.59,0.05,1.17,0.41,1.17,1.06c0,1.02-1.15,1.34-2.05,1.34c-0.57,0-1.16-0.13-1.59-0.39l0.25-0.71c0.31,0.17,0.78,0.3,1.22,0.31
			c0.62,0,0.95-0.26,0.95-0.6c0-0.47-0.48-0.62-1.1-0.62h-0.54V60.98z"/>
		<path class="st2" d="M83.26,59.2v0.88h-1.8v3.53h-1.11V59.2H83.26z"/>
		<path class="st2" d="M90.75,61.36c0,1.62-1.14,2.34-2.26,2.34c-1.24,0-2.21-0.85-2.21-2.27c0-1.45,0.95-2.33,2.28-2.33
			C89.87,59.1,90.75,60.02,90.75,61.36z M87.43,61.4c0,0.85,0.43,1.49,1.09,1.49c0.63,0,1.08-0.62,1.08-1.51
			c0-0.69-0.31-1.48-1.07-1.48C87.74,59.9,87.43,60.67,87.43,61.4z"/>
		<path class="st2" d="M97.54,59.2v0.86h-1.32v3.55H95.1v-3.55h-1.32V59.2H97.54z"/>
		<path class="st2" d="M104.99,61.36c0,1.62-1.14,2.34-2.26,2.34c-1.24,0-2.21-0.85-2.21-2.27c0-1.45,0.95-2.33,2.28-2.33
			C104.11,59.1,104.99,60.02,104.99,61.36z M101.67,61.4c0,0.85,0.43,1.49,1.09,1.49c0.63,0,1.08-0.62,1.08-1.51
			c0-0.69-0.31-1.48-1.07-1.48C101.99,59.9,101.67,60.67,101.67,61.4z"/>
		<path class="st2" d="M108.62,59.25c0.33-0.05,1-0.11,1.61-0.11c0.74,0,2.07,0.1,2.07,1.11c0,0.56-0.43,0.88-0.9,0.98v0.02
			c0.66,0.1,1.1,0.46,1.1,1.08c0,1.2-1.59,1.33-2.47,1.33c-0.56,0-1.15-0.04-1.41-0.05V59.25z M109.7,62.93
			c0.18,0.02,0.32,0.02,0.53,0.02c0.51,0,1.12-0.13,1.12-0.65c0-0.49-0.49-0.65-1.19-0.65h-0.47V62.93z M109.71,60.98h0.46
			c0.56,0,1.03-0.15,1.03-0.58c0-0.35-0.31-0.54-0.96-0.54c-0.23,0-0.37,0.02-0.53,0.04V60.98z"/>
		<path class="st2" d="M119.79,59.2v4.41h-1.11v-3.55h-1.2v0.95c0,1.15-0.13,1.93-0.65,2.32c-0.25,0.24-0.58,0.36-1.1,0.36
			l-0.12-0.87c0.19-0.03,0.36-0.11,0.47-0.21c0.33-0.28,0.36-0.79,0.36-1.64V59.2H119.79z"/>
		<path class="st2" d="M124.47,61.71c0.03,0.8,0.64,1.14,1.36,1.14c0.52,0,0.88-0.08,1.22-0.2l0.16,0.76
			c-0.38,0.16-0.9,0.28-1.54,0.28c-1.43,0-2.27-0.88-2.27-2.22c0-1.22,0.74-2.37,2.15-2.37c1.43,0,1.9,1.18,1.9,2.14
			c0,0.21-0.02,0.37-0.04,0.47H124.47z M126.41,60.93c0.01-0.41-0.17-1.08-0.91-1.08c-0.69,0-0.98,0.63-1.02,1.08H126.41z"/>
		<path class="st2" d="M132.17,59.2v1.68h1.7V59.2h1.11v4.41h-1.11v-1.86h-1.7v1.86h-1.11V59.2H132.17z"/>
		<path class="st2" d="M139.94,59.2v1.58c0,0.7-0.03,1.17-0.06,1.78h0.04c0.24-0.52,0.36-0.84,0.6-1.3l1.08-2.06h1.35v4.41h-1.06
			v-1.57c0-0.71,0.03-1.03,0.07-1.86h-0.04c-0.22,0.52-0.36,0.84-0.58,1.27c-0.33,0.65-0.74,1.45-1.12,2.17h-1.33V59.2H139.94z"/>
		<path class="st2" d="M147.63,61.71c0.03,0.8,0.64,1.14,1.36,1.14c0.52,0,0.88-0.08,1.22-0.2l0.16,0.76
			c-0.38,0.16-0.9,0.28-1.54,0.28c-1.43,0-2.27-0.88-2.27-2.22c0-1.22,0.74-2.37,2.15-2.37c1.43,0,1.9,1.18,1.9,2.14
			c0,0.21-0.02,0.37-0.04,0.47H147.63z M149.56,60.93c0.01-0.41-0.17-1.08-0.91-1.08c-0.69,0-0.98,0.63-1.02,1.08H149.56z"/>
		<path class="st2" d="M158.93,59.2h1.4l0.62,1.92c0.09,0.28,0.24,0.78,0.34,1.15h0.02c0.09-0.32,0.28-0.89,0.43-1.34l0.58-1.73h1.4
			l0.29,4.41h-1.04l-0.08-1.92c-0.02-0.43-0.05-1.03-0.06-1.56h-0.03c-0.15,0.51-0.22,0.74-0.45,1.44l-0.71,1.98h-0.81l-0.64-1.94
			c-0.13-0.42-0.29-1.06-0.4-1.47h-0.04c-0.01,0.54-0.03,1.14-0.05,1.57l-0.09,1.89h-1L158.93,59.2z"/>
		<path class="st2" d="M168.48,61.71c0.03,0.8,0.64,1.14,1.36,1.14c0.52,0,0.88-0.08,1.22-0.2l0.16,0.76
			c-0.38,0.16-0.9,0.28-1.54,0.28c-1.43,0-2.27-0.88-2.27-2.22c0-1.22,0.74-2.37,2.15-2.37c1.43,0,1.9,1.18,1.9,2.14
			c0,0.21-0.02,0.37-0.04,0.47H168.48z M170.42,60.93c0.01-0.41-0.17-1.08-0.91-1.08c-0.69,0-0.98,0.63-1.02,1.08H170.42z"/>
		<path class="st2" d="M178.29,59.2v0.86h-1.32v3.55h-1.11v-3.55h-1.32V59.2H178.29z"/>
		<path class="st2" d="M185.01,62.54c0,0.4,0.02,0.79,0.07,1.06h-1l-0.08-0.49h-0.03c-0.26,0.34-0.72,0.59-1.3,0.59
			c-0.89,0-1.38-0.64-1.38-1.31c0-1.1,0.99-1.67,2.62-1.66v-0.07c0-0.29-0.12-0.77-0.9-0.77c-0.43,0-0.89,0.14-1.19,0.33l-0.22-0.72
			c0.33-0.2,0.9-0.39,1.59-0.39c1.41,0,1.82,0.9,1.82,1.86V62.54z M183.92,61.45c-0.79-0.01-1.54,0.15-1.54,0.82
			c0,0.43,0.28,0.63,0.63,0.63c0.45,0,0.77-0.29,0.88-0.61c0.03-0.08,0.03-0.16,0.03-0.24V61.45z"/>
		<path class="st2" d="M192.56,59.2v4.41h-1.11v-3.55h-1.2v0.95c0,1.15-0.13,1.93-0.65,2.32c-0.25,0.24-0.58,0.36-1.1,0.36
			l-0.12-0.87c0.19-0.03,0.36-0.11,0.47-0.21c0.33-0.28,0.36-0.79,0.36-1.64V59.2H192.56z"/>
		<path class="st2" d="M200.08,59.2v4.41h-1.11v-3.55h-1.2v0.95c0,1.15-0.13,1.93-0.65,2.32c-0.25,0.24-0.58,0.36-1.1,0.36
			l-0.12-0.87c0.19-0.03,0.36-0.11,0.47-0.21c0.33-0.28,0.36-0.79,0.36-1.64V59.2H200.08z"/>
		<path class="st2" d="M208.17,61.36c0,1.62-1.14,2.34-2.26,2.34c-1.24,0-2.21-0.85-2.21-2.27c0-1.45,0.95-2.33,2.28-2.33
			C207.29,59.1,208.17,60.02,208.17,61.36z M204.85,61.4c0,0.85,0.43,1.49,1.09,1.49c0.63,0,1.08-0.62,1.08-1.51
			c0-0.69-0.31-1.48-1.07-1.48C205.16,59.9,204.85,60.67,204.85,61.4z"/>
		<path class="st2" d="M212.91,59.2v1.83h0.16l1.36-1.83h1.32L214,61.13c0.61,0.09,0.98,0.56,1.28,1.27c0.14,0.33,0.29,0.81,0.5,1.2
			h-1.16c-0.12-0.19-0.24-0.52-0.41-0.94c-0.24-0.61-0.58-0.9-1.15-0.9h-0.15v1.84h-1.11V59.2H212.91z"/>
		<path class="st2" d="M223.23,61.36c0,1.62-1.14,2.34-2.26,2.34c-1.24,0-2.21-0.85-2.21-2.27c0-1.45,0.95-2.33,2.28-2.33
			C222.36,59.1,223.23,60.02,223.23,61.36z M219.91,61.4c0,0.85,0.43,1.49,1.09,1.49c0.63,0,1.08-0.62,1.08-1.51
			c0-0.69-0.31-1.48-1.07-1.48C220.23,59.9,219.91,60.67,219.91,61.4z"/>
		<path class="st2" d="M227.97,59.2v1.68h1.7V59.2h1.11v4.41h-1.11v-1.86h-1.7v1.86h-1.11V59.2H227.97z"/>
		<path class="st2" d="M237.93,63.47c-0.24,0.11-0.7,0.23-1.25,0.23c-1.38,0-2.27-0.89-2.27-2.25c0-1.32,0.9-2.34,2.45-2.34
			c0.41,0,0.82,0.09,1.08,0.2l-0.2,0.84c-0.18-0.09-0.44-0.17-0.84-0.17c-0.85,0-1.36,0.62-1.35,1.43c0,0.91,0.59,1.42,1.35,1.42
			c0.38,0,0.66-0.08,0.88-0.17L237.93,63.47z"/>
		<path class="st2" d="M244.87,59.2v0.86h-1.32v3.55h-1.11v-3.55h-1.32V59.2H244.87z"/>
		<path class="st2" d="M248.24,60.66c0-0.58-0.02-1.05-0.04-1.46h0.98l0.05,0.68h0.02c0.33-0.5,0.84-0.78,1.51-0.78
			c1.01,0,1.85,0.87,1.85,2.24c0,1.59-1,2.36-2.01,2.36c-0.55,0-1.01-0.24-1.24-0.59h-0.02v2.28h-1.11V60.66z M249.35,61.76
			c0,0.11,0.01,0.21,0.03,0.31c0.12,0.45,0.51,0.78,0.99,0.78c0.71,0,1.12-0.59,1.12-1.46c0-0.78-0.38-1.41-1.1-1.41
			c-0.46,0-0.89,0.34-1,0.82c-0.02,0.09-0.04,0.19-0.04,0.28V61.76z"/>
		<path class="st2" d="M256.82,59.2l0.79,2.36c0.09,0.27,0.19,0.61,0.25,0.85h0.03c0.06-0.24,0.15-0.58,0.24-0.86l0.69-2.35h1.19
			l-1.1,3c-0.61,1.65-1.01,2.38-1.53,2.83c-0.44,0.38-0.9,0.53-1.17,0.56l-0.25-0.93c0.19-0.04,0.42-0.14,0.64-0.31
			c0.22-0.14,0.46-0.4,0.62-0.7c0.04-0.08,0.06-0.14,0.06-0.2c0-0.04-0.01-0.11-0.05-0.22l-1.62-4.04H256.82z"/>
		<path class="st2" d="M264.47,59.2v1.83h0.16l1.36-1.83h1.32l-1.76,1.94c0.61,0.09,0.98,0.56,1.28,1.27
			c0.14,0.33,0.29,0.81,0.5,1.2h-1.16c-0.12-0.19-0.24-0.52-0.41-0.94c-0.24-0.61-0.58-0.9-1.15-0.9h-0.15v1.84h-1.11V59.2H264.47z"
			/>
		<path class="st2" d="M271.77,59.2v3.55h1.66V59.2h1.12v3.6l0.47,0.02l-0.05,2.2h-0.85l-0.04-1.41h-3.42V59.2H271.77z"/>
		<path class="st2" d="M279.61,59.2v1.58c0,0.7-0.03,1.17-0.06,1.78h0.04c0.24-0.52,0.36-0.84,0.6-1.3l1.08-2.06h1.35v4.41h-1.06
			v-1.57c0-0.71,0.03-1.03,0.07-1.86h-0.04c-0.22,0.52-0.36,0.84-0.58,1.27c-0.33,0.65-0.74,1.45-1.12,2.17h-1.33V59.2H279.61z"/>
		<path class="st2" d="M287.56,59.2v1.58c0,0.7-0.03,1.17-0.06,1.78h0.04c0.24-0.52,0.36-0.84,0.6-1.3l1.08-2.06h1.35v4.41h-1.06
			v-1.57c0-0.71,0.03-1.03,0.07-1.86h-0.04c-0.22,0.52-0.36,0.84-0.58,1.27c-0.33,0.65-0.74,1.45-1.12,2.17h-1.33V59.2H287.56z
			 M288.02,57.4c0.02,0.39,0.18,0.66,0.49,0.66c0.33,0,0.49-0.27,0.52-0.66h0.73c-0.04,0.8-0.53,1.2-1.28,1.2
			c-0.81,0-1.18-0.5-1.21-1.2H288.02z"/>
	</g>
</g>
</svg>
