<?xml version="1.0" encoding="utf-8"?>
<!-- Generator: Adobe Illustrator 24.0.1, SVG Export Plug-In . SVG Version: 6.00 Build 0)  -->
<svg version="1.1" id="Layer_1" xmlns="http://www.w3.org/2000/svg" xmlns:xlink="http://www.w3.org/1999/xlink" x="0px" y="0px"
	 viewBox="0 0 297.64 70.87" style="enable-background:new 0 0 297.64 70.87;" xml:space="preserve">
<style type="text/css">
	.st0{fill:#C41718;}
	.st1{fill:#FFFFFF;}
	.st2{fill:#5A2019;}
</style>
<g>
	<g>
		<path class="st0" d="M75,24.88h-5.3v22.19h-3.84V20.93c0,0,0.39,0,9.14,0V24.88z"/>
		<path class="st0" d="M75.36,43.54c0,0,2.03,0.43,2.06-1.92l0.53-20.69h9.28v26.13h-3.84V24.88h-1.6l-0.53,17.35
			c-0.07,2.81-1.35,5.33-5.9,5.08V43.54z"/>
		<path class="st0" d="M89.01,47.06l3.95-26.13h4.69l3.95,26.13h-3.73l-0.71-5.33h-3.7l-0.71,5.33H89.01z M95.52,29.43l-0.11-1.39
			H95.2l-0.11,1.39l-1.1,8.25h2.63L95.52,29.43z"/>
		<path class="st0" d="M103.37,47.06V20.93c0,0,1.92,0,3.38,0c4.59,0,7,1.74,7,6.93c0,2.42-0.53,3.8-2.38,5.4
			c0,0,2.67,1.21,2.67,6.4c0,3.84-1.35,7.22-5.94,7.4H103.37z M107.21,24.74v6.97c0.71,0,2.84,0.11,2.84-3.48
			S107.92,24.74,107.21,24.74z M107.21,35.22v8.04c0.71,0,2.84,0.28,2.84-4.02C110.06,34.94,107.92,35.22,107.21,35.22z"/>
		<path class="st0" d="M114.96,24.88v-3.95h11.09v3.95h-3.63v22.19h-3.84V24.88H114.96z"/>
		<path class="st0" d="M127.55,20.93h8.78v3.95h-4.94v6.86h3.56v4.2h-3.56v7.18h4.94v3.95h-8.78V20.93z"/>
		<path class="st0" d="M141.09,47.06h-3.77l4.23-13.72l-4.16-12.41h3.77l2.1,6.61l0.11,0.32h0.14l0.11-0.32l2.1-6.61h3.77
			l-4.16,12.41l4.23,13.72h-3.77l-2.2-7.79l-0.07-0.32h-0.14l-0.07,0.32L141.09,47.06z"/>
		<path class="st0" d="M155.1,20.93v8.71v1.14h0.14l0.18-1.14l3.2-8.71h3.73l-3.52,8.6l3.98,17.53h-3.73l-2.67-11.38l-0.11-0.53
			h-0.11l-0.21,0.53l-0.89,2.13v9.24h-3.84c0-8.18,0-26.13,0-26.13H155.1z"/>
		<path class="st0" d="M169.47,47.35c-5.16,0-5.12-5.65-5.12-5.65V26.3c0,0-0.04-5.65,5.12-5.65s5.12,5.65,5.12,5.65v15.39
			C174.59,41.69,174.62,47.35,169.47,47.35z M169.47,24.38c-1.35,0-1.28,1.92-1.28,1.92v15.39c0,0-0.07,1.92,1.28,1.92
			s1.28-1.92,1.28-1.92V26.3C170.75,26.3,170.82,24.38,169.47,24.38z"/>
		<path class="st0" d="M184.01,35.69h-2.99v11.38h-3.84c0,0,0-25.95,0-26.13h3.84v10.81h2.99V20.93h3.84v26.13h-3.84V35.69z"/>
		<path class="st0" d="M200.68,38.1v3.59c0,0,0.04,5.65-5.12,5.65s-5.12-5.65-5.12-5.65V26.3c0,0-0.04-5.65,5.12-5.65
			s5.12,5.65,5.12,5.65v3.59h-3.59V26.3c0,0,0.14-1.92-1.46-1.92c-1.35,0-1.35,1.92-1.35,1.92v15.39c0,0,0,1.92,1.35,1.92
			c1.6,0,1.46-1.92,1.46-1.92V38.1H200.68z"/>
		<path class="st0" d="M201.64,24.88v-3.95h11.09v3.95h-3.63v22.19h-3.84V24.88H201.64z"/>
		<path class="st0" d="M214.23,20.93c0,0,3.66,0,3.84,0c3.34,0,6.76,1.81,6.76,7.82c0,6.01-3.41,7.86-6.76,7.86v10.45h-3.84V20.93z
			 M218.07,32.7c2.42,0,2.88-0.89,2.88-3.8c0-2.92-0.46-4.05-2.88-4.05V32.7z"/>
		<path class="st0" d="M226.49,44.08c0,0,0.28,0.07,0.85,0.07c1.49-0.14,1.96-1.78,1.96-3.2l-3.66-20.02h3.88l1.96,14.43l0.07,1
			h0.14l0.07-1l1.6-14.43h3.52l-3.09,20.91c-0.36,2.7-2.84,5.51-5.69,5.51c-0.39,0-1.6-0.07-1.6-0.07V44.08z"/>
		<path class="st0" d="M243.02,20.93v8.71v1.14h0.14l0.18-1.14l3.2-8.71h3.73l-3.52,8.6l3.98,17.53H247l-2.67-11.38l-0.11-0.53
			h-0.11l-0.21,0.53l-0.89,2.13v9.24h-3.84c0-8.18,0-26.13,0-26.13H243.02z"/>
		<path class="st0" d="M261.26,47.06h-8.75V20.93h3.84v22.19h2.99V20.93h3.84v22.19h1.92v8.35h-3.84V47.06z"/>
		<path class="st0" d="M269.94,47.06h-3.41V20.93h3.52v13.62v1.21h0.21l0.32-1.21l3.73-13.62h3.41v26.13h-3.52V33.45v-1.21h-0.21
			l-0.32,1.21L269.94,47.06z"/>
		<path class="st0" d="M280.21,47.06l2.45-12.66c-1.46-1-2.13-3.34-2.13-5.94c0-4.91,1.99-7.54,6.54-7.54h3.84v26.13h-3.84V36.04
			h-1.03l-1.99,11.02H280.21z M287.07,32.49v-7.75c-1.07,0-2.84,0.14-2.84,3.88C284.23,32.34,286.01,32.49,287.07,32.49z"/>
	</g>
	<g>
		<polygon class="st0" points="32.07,67.49 18.7,60.32 18.7,28.69 32.07,35.86 		"/>
		<polygon class="st0" points="33.86,67.49 47.23,60.32 47.23,28.69 33.86,35.86 		"/>
	</g>
	<polygon class="st0" points="33.82,5.98 32.96,5.5 32.11,5.98 5.45,21.07 5.45,46.91 15.23,52.16 15.23,26.28 32.96,16.25 
		50.69,26.28 50.69,52.16 60.47,46.91 60.47,21.07 	"/>
	<polygon class="st1" points="294.76,54.12 65.88,54.12 40.97,67.49 294.76,67.49 	"/>
	<g>
		<path class="st2" d="M66.15,58.59v1.58c0,0.7-0.03,1.17-0.06,1.78h0.04c0.24-0.52,0.36-0.84,0.6-1.3l1.08-2.06h1.35V63h-1.06
			v-1.57c0-0.71,0.03-1.03,0.07-1.86h-0.04c-0.22,0.52-0.36,0.84-0.58,1.27c-0.33,0.65-0.74,1.45-1.12,2.17h-1.33v-4.41H66.15z"/>
		<path class="st2" d="M73.46,60.37h0.52c0.62,0,0.97-0.24,0.97-0.56s-0.3-0.52-0.8-0.52c-0.37,0-0.78,0.13-1.09,0.31l-0.24-0.66
			c0.49-0.29,1.09-0.43,1.65-0.43c0.75,0,1.66,0.29,1.66,1.17c0,0.56-0.52,0.89-0.97,0.99v0.03c0.59,0.05,1.17,0.41,1.17,1.06
			c0,1.02-1.15,1.34-2.05,1.34c-0.57,0-1.16-0.14-1.59-0.39l0.25-0.71c0.31,0.17,0.78,0.3,1.22,0.31c0.62,0,0.95-0.26,0.95-0.6
			c0-0.47-0.48-0.62-1.1-0.62h-0.54V60.37z"/>
		<path class="st2" d="M82.85,58.59v0.88h-1.8V63h-1.11v-4.41H82.85z"/>
		<path class="st2" d="M90.34,60.75c0,1.62-1.14,2.34-2.26,2.34c-1.24,0-2.21-0.85-2.21-2.27c0-1.45,0.95-2.33,2.28-2.33
			C89.46,58.49,90.34,59.42,90.34,60.75z M87.02,60.8c0,0.85,0.43,1.49,1.09,1.49c0.63,0,1.08-0.62,1.08-1.51
			c0-0.69-0.31-1.48-1.07-1.48C87.34,59.3,87.02,60.07,87.02,60.8z"/>
		<path class="st2" d="M97.13,58.59v0.86h-1.32V63H94.7v-3.55h-1.32v-0.86H97.13z"/>
		<path class="st2" d="M104.58,60.75c0,1.62-1.14,2.34-2.26,2.34c-1.24,0-2.21-0.85-2.21-2.27c0-1.45,0.95-2.33,2.28-2.33
			C103.71,58.49,104.58,59.42,104.58,60.75z M101.26,60.8c0,0.85,0.43,1.49,1.09,1.49c0.63,0,1.08-0.62,1.08-1.51
			c0-0.69-0.31-1.48-1.07-1.48C101.58,59.3,101.26,60.07,101.26,60.8z"/>
		<path class="st2" d="M108.21,58.65c0.33-0.05,1-0.11,1.61-0.11c0.74,0,2.07,0.1,2.07,1.11c0,0.56-0.43,0.88-0.9,0.98v0.02
			c0.66,0.1,1.1,0.46,1.1,1.08c0,1.2-1.59,1.33-2.47,1.33c-0.56,0-1.15-0.04-1.41-0.05V58.65z M109.29,62.33
			c0.18,0.02,0.32,0.02,0.53,0.02c0.51,0,1.12-0.13,1.12-0.65c0-0.49-0.49-0.65-1.19-0.65h-0.47V62.33z M109.3,60.37h0.46
			c0.56,0,1.03-0.15,1.03-0.58c0-0.35-0.31-0.54-0.96-0.54c-0.23,0-0.37,0.02-0.53,0.04V60.37z"/>
		<path class="st2" d="M119.38,58.59V63h-1.11v-3.55h-1.2v0.95c0,1.15-0.13,1.93-0.65,2.32c-0.25,0.24-0.58,0.36-1.1,0.36
			l-0.12-0.87c0.19-0.03,0.36-0.11,0.47-0.21c0.33-0.28,0.36-0.79,0.36-1.64v-1.77H119.38z"/>
		<path class="st2" d="M124.06,61.11c0.03,0.8,0.64,1.14,1.36,1.14c0.52,0,0.88-0.08,1.22-0.2l0.16,0.76
			c-0.38,0.16-0.9,0.28-1.54,0.28c-1.43,0-2.27-0.88-2.27-2.23c0-1.22,0.74-2.37,2.15-2.37c1.43,0,1.9,1.18,1.9,2.14
			c0,0.21-0.02,0.37-0.04,0.47H124.06z M126,60.33c0.01-0.41-0.17-1.08-0.91-1.08c-0.69,0-0.98,0.62-1.02,1.08H126z"/>
		<path class="st2" d="M131.77,58.59v1.68h1.7v-1.68h1.11V63h-1.11v-1.85h-1.7V63h-1.11v-4.41H131.77z"/>
		<path class="st2" d="M139.54,58.59v1.58c0,0.7-0.03,1.17-0.06,1.78h0.04c0.24-0.52,0.36-0.84,0.6-1.3l1.08-2.06h1.35V63h-1.06
			v-1.57c0-0.71,0.03-1.03,0.07-1.86h-0.04c-0.22,0.52-0.36,0.84-0.58,1.27c-0.33,0.65-0.74,1.45-1.12,2.17h-1.33v-4.41H139.54z"/>
		<path class="st2" d="M147.22,61.11c0.03,0.8,0.64,1.14,1.36,1.14c0.52,0,0.88-0.08,1.22-0.2l0.16,0.76
			c-0.38,0.16-0.9,0.28-1.54,0.28c-1.43,0-2.27-0.88-2.27-2.23c0-1.22,0.74-2.37,2.15-2.37c1.43,0,1.9,1.18,1.9,2.14
			c0,0.21-0.02,0.37-0.04,0.47H147.22z M149.16,60.33c0.01-0.41-0.17-1.08-0.91-1.08c-0.69,0-0.98,0.62-1.02,1.08H149.16z"/>
		<path class="st2" d="M158.53,58.59h1.4l0.62,1.92c0.09,0.28,0.24,0.78,0.34,1.15h0.02c0.09-0.32,0.28-0.9,0.43-1.34l0.58-1.73h1.4
			l0.29,4.41h-1.04l-0.08-1.92c-0.02-0.43-0.05-1.03-0.06-1.56h-0.03c-0.15,0.51-0.22,0.74-0.45,1.44l-0.71,1.98h-0.81l-0.64-1.94
			c-0.13-0.42-0.29-1.06-0.4-1.47h-0.04c-0.01,0.54-0.03,1.14-0.05,1.57L159.21,63h-1L158.53,58.59z"/>
		<path class="st2" d="M168.08,61.11c0.03,0.8,0.64,1.14,1.36,1.14c0.52,0,0.88-0.08,1.22-0.2l0.16,0.76
			c-0.38,0.16-0.9,0.28-1.54,0.28c-1.43,0-2.27-0.88-2.27-2.23c0-1.22,0.74-2.37,2.15-2.37c1.43,0,1.9,1.18,1.9,2.14
			c0,0.21-0.02,0.37-0.04,0.47H168.08z M170.01,60.33c0.01-0.41-0.17-1.08-0.91-1.08c-0.69,0-0.98,0.62-1.02,1.08H170.01z"/>
		<path class="st2" d="M177.88,58.59v0.86h-1.32V63h-1.11v-3.55h-1.32v-0.86H177.88z"/>
		<path class="st2" d="M184.6,61.94c0,0.4,0.02,0.79,0.07,1.06h-1l-0.08-0.49h-0.03c-0.26,0.34-0.72,0.59-1.3,0.59
			c-0.89,0-1.38-0.64-1.38-1.31c0-1.1,0.99-1.67,2.62-1.67v-0.07c0-0.29-0.12-0.77-0.9-0.77c-0.43,0-0.89,0.14-1.19,0.33l-0.22-0.72
			c0.33-0.2,0.9-0.39,1.59-0.39c1.41,0,1.82,0.9,1.82,1.86V61.94z M183.51,60.85c-0.79-0.01-1.54,0.15-1.54,0.82
			c0,0.43,0.28,0.63,0.63,0.63c0.45,0,0.77-0.29,0.88-0.61c0.03-0.08,0.03-0.16,0.03-0.24V60.85z"/>
		<path class="st2" d="M192.15,58.59V63h-1.11v-3.55h-1.2v0.95c0,1.15-0.13,1.93-0.65,2.32c-0.25,0.24-0.58,0.36-1.1,0.36
			l-0.12-0.87c0.19-0.03,0.36-0.11,0.47-0.21c0.33-0.28,0.36-0.79,0.36-1.64v-1.77H192.15z"/>
		<path class="st2" d="M199.68,58.59V63h-1.11v-3.55h-1.2v0.95c0,1.15-0.13,1.93-0.65,2.32c-0.25,0.24-0.58,0.36-1.1,0.36
			l-0.12-0.87c0.19-0.03,0.36-0.11,0.47-0.21c0.33-0.28,0.36-0.79,0.36-1.64v-1.77H199.68z"/>
		<path class="st2" d="M207.76,60.75c0,1.62-1.14,2.34-2.26,2.34c-1.24,0-2.21-0.85-2.21-2.27c0-1.45,0.95-2.33,2.28-2.33
			C206.88,58.49,207.76,59.42,207.76,60.75z M204.44,60.8c0,0.85,0.43,1.49,1.09,1.49c0.63,0,1.08-0.62,1.08-1.51
			c0-0.69-0.31-1.48-1.07-1.48C204.76,59.3,204.44,60.07,204.44,60.8z"/>
		<path class="st2" d="M212.51,58.59v1.83h0.16l1.36-1.83h1.32l-1.76,1.94c0.61,0.09,0.98,0.56,1.28,1.27
			c0.14,0.33,0.29,0.81,0.5,1.2h-1.16c-0.12-0.19-0.24-0.52-0.41-0.94c-0.24-0.61-0.58-0.9-1.15-0.9h-0.15V63h-1.11v-4.41H212.51z"
			/>
		<path class="st2" d="M222.83,60.75c0,1.62-1.14,2.34-2.26,2.34c-1.24,0-2.21-0.85-2.21-2.27c0-1.45,0.95-2.33,2.28-2.33
			C221.95,58.49,222.83,59.42,222.83,60.75z M219.51,60.8c0,0.85,0.43,1.49,1.09,1.49c0.63,0,1.08-0.62,1.08-1.51
			c0-0.69-0.31-1.48-1.07-1.48C219.82,59.3,219.51,60.07,219.51,60.8z"/>
		<path class="st2" d="M227.56,58.59v1.68h1.7v-1.68h1.11V63h-1.11v-1.85h-1.7V63h-1.11v-4.41H227.56z"/>
		<path class="st2" d="M237.52,62.86c-0.24,0.11-0.7,0.23-1.25,0.23c-1.38,0-2.27-0.89-2.27-2.25c0-1.32,0.9-2.34,2.45-2.34
			c0.41,0,0.82,0.09,1.08,0.2l-0.2,0.84c-0.18-0.09-0.44-0.17-0.84-0.17c-0.85,0-1.36,0.62-1.35,1.43c0,0.91,0.59,1.42,1.35,1.42
			c0.38,0,0.66-0.08,0.88-0.17L237.52,62.86z"/>
		<path class="st2" d="M244.47,58.59v0.86h-1.32V63h-1.11v-3.55h-1.32v-0.86H244.47z"/>
		<path class="st2" d="M247.83,60.06c0-0.58-0.02-1.05-0.04-1.47h0.98l0.05,0.68h0.02c0.33-0.5,0.84-0.78,1.51-0.78
			c1.01,0,1.85,0.87,1.85,2.24c0,1.59-1,2.36-2.01,2.36c-0.55,0-1.01-0.24-1.24-0.59h-0.02v2.28h-1.11V60.06z M248.94,61.15
			c0,0.11,0.01,0.21,0.03,0.31c0.12,0.45,0.51,0.78,0.99,0.78c0.71,0,1.12-0.59,1.12-1.46c0-0.78-0.38-1.41-1.09-1.41
			c-0.46,0-0.89,0.33-1,0.82c-0.02,0.09-0.04,0.19-0.04,0.28V61.15z"/>
		<path class="st2" d="M256.41,58.59l0.79,2.36c0.09,0.27,0.19,0.61,0.25,0.85h0.03c0.06-0.24,0.15-0.58,0.24-0.86l0.69-2.35h1.19
			l-1.1,3c-0.61,1.65-1.01,2.38-1.53,2.83c-0.44,0.38-0.9,0.52-1.17,0.56l-0.25-0.93c0.19-0.04,0.42-0.14,0.64-0.31
			c0.22-0.14,0.46-0.4,0.62-0.7c0.04-0.08,0.06-0.14,0.06-0.2c0-0.05-0.01-0.11-0.05-0.22l-1.62-4.04H256.41z"/>
		<path class="st2" d="M264.06,58.59v1.83h0.16l1.36-1.83h1.32l-1.76,1.94c0.61,0.09,0.98,0.56,1.28,1.27
			c0.14,0.33,0.29,0.81,0.5,1.2h-1.16c-0.12-0.19-0.24-0.52-0.41-0.94c-0.24-0.61-0.58-0.9-1.15-0.9h-0.15V63h-1.11v-4.41H264.06z"
			/>
		<path class="st2" d="M271.36,58.59v3.55h1.66v-3.55h1.12v3.6l0.47,0.02l-0.05,2.2h-0.85L273.67,63h-3.42v-4.41H271.36z"/>
		<path class="st2" d="M279.2,58.59v1.58c0,0.7-0.03,1.17-0.06,1.78h0.04c0.24-0.52,0.36-0.84,0.6-1.3l1.08-2.06h1.35V63h-1.06
			v-1.57c0-0.71,0.03-1.03,0.07-1.86h-0.04c-0.22,0.52-0.36,0.84-0.58,1.27c-0.33,0.65-0.74,1.45-1.12,2.17h-1.33v-4.41H279.2z"/>
		<path class="st2" d="M287.15,58.59v1.58c0,0.7-0.03,1.17-0.06,1.78h0.04c0.24-0.52,0.36-0.84,0.6-1.3l1.08-2.06h1.35V63h-1.06
			v-1.57c0-0.71,0.03-1.03,0.07-1.86h-0.04c-0.22,0.52-0.36,0.84-0.58,1.27c-0.33,0.65-0.74,1.45-1.12,2.17h-1.33v-4.41H287.15z
			 M287.61,56.79c0.02,0.39,0.18,0.66,0.49,0.66c0.33,0,0.49-0.27,0.52-0.66h0.73c-0.04,0.8-0.53,1.2-1.28,1.2
			c-0.81,0-1.18-0.5-1.21-1.2H287.61z"/>
	</g>
</g>
</svg>
