<svg width="290" height="63" viewBox="0 0 290 63" fill="none" xmlns="http://www.w3.org/2000/svg">
<path d="M69.85 20.2201H64.55V42.4001H60.71V16.2701C60.71 16.2701 61.1 16.2701 69.85 16.2701V20.2201Z" fill="#C41718"/>
<path d="M70.21 38.8801C70.21 38.8801 72.24 39.3101 72.27 36.9601L72.8 16.2701H82.08V42.4001H78.24V20.2201H76.64L76.11 37.5701C76.04 40.3801 74.76 42.9001 70.21 42.6501V38.8801Z" fill="#C41718"/>
<path d="M83.8599 42.4001L87.8099 16.2701H92.4999L96.4499 42.4001H92.7199L91.9999 37.0701H88.2999L87.5899 42.4001H83.8599ZM90.3699 24.7701L90.2599 23.3801H90.0499L89.9399 24.7701L88.8399 33.0201H91.4699L90.3699 24.7701Z" fill="#C41718"/>
<path d="M98.22 42.4001V16.2701C98.22 16.2701 100.14 16.2701 101.6 16.2701C106.19 16.2701 108.6 18.0101 108.6 23.2001C108.6 25.6201 108.07 27.0001 106.22 28.6001C106.22 28.6001 108.89 29.8101 108.89 35.0001C108.89 38.8401 107.54 42.2201 102.95 42.4001H98.22ZM102.06 20.0801V27.0501C102.77 27.0501 104.9 27.1601 104.9 23.5701C104.9 19.9801 102.77 20.0801 102.06 20.0801ZM102.06 30.5601V38.6001C102.77 38.6001 104.9 38.8901 104.9 34.5801C104.91 30.2801 102.77 30.5601 102.06 30.5601Z" fill="#C41718"/>
<path d="M109.81 20.2201V16.2701H120.9V20.2201H117.27V42.4001H113.43V20.2201H109.81Z" fill="#C41718"/>
<path d="M122.4 16.2701H131.18V20.2201H126.24V27.0801H129.8V31.2801H126.24V38.4601H131.18V42.4101H122.4V16.2701Z" fill="#C41718"/>
<path d="M135.94 42.4001H132.17L136.4 28.6801L132.24 16.2701H136.01L138.11 22.8801L138.22 23.2001H138.36L138.47 22.8801L140.57 16.2701H144.34L140.18 28.6801L144.41 42.4001H140.64L138.44 34.6101L138.37 34.2901H138.23L138.16 34.6101L135.94 42.4001Z" fill="#C41718"/>
<path d="M149.95 16.2701V24.9801V26.1201H150.09L150.27 24.9801L153.47 16.2701H157.2L153.68 24.8701L157.66 42.4001H153.93L151.26 31.0201L151.15 30.4901H151.04L150.83 31.0201L149.94 33.1501V42.3901H146.1C146.1 34.2101 146.1 16.2601 146.1 16.2601H149.95V16.2701Z" fill="#C41718"/>
<path d="M164.32 42.6901C159.16 42.6901 159.2 37.0401 159.2 37.0401V21.6401C159.2 21.6401 159.16 15.9901 164.32 15.9901C169.48 15.9901 169.44 21.6401 169.44 21.6401V37.0301C169.44 37.0301 169.47 42.6901 164.32 42.6901ZM164.32 19.7201C162.97 19.7201 163.04 21.6401 163.04 21.6401V37.0301C163.04 37.0301 162.97 38.9501 164.32 38.9501C165.67 38.9501 165.6 37.0301 165.6 37.0301V21.6401C165.6 21.6401 165.67 19.7201 164.32 19.7201Z" fill="#C41718"/>
<path d="M178.86 31.0301H175.87V42.4001H172.03C172.03 42.4001 172.03 16.4501 172.03 16.2701H175.87V27.0801H178.86V16.2701H182.7V42.4001H178.86V31.0301Z" fill="#C41718"/>
<path d="M195.53 33.4401V37.0301C195.53 37.0301 195.57 42.6801 190.41 42.6801C185.25 42.6801 185.29 37.0301 185.29 37.0301V21.6401C185.29 21.6401 185.25 15.9901 190.41 15.9901C195.57 15.9901 195.53 21.6401 195.53 21.6401V25.2301H191.94V21.6401C191.94 21.6401 192.08 19.7201 190.48 19.7201C189.13 19.7201 189.13 21.6401 189.13 21.6401V37.0301C189.13 37.0301 189.13 38.9501 190.48 38.9501C192.08 38.9501 191.94 37.0301 191.94 37.0301V33.4401H195.53Z" fill="#C41718"/>
<path d="M196.49 20.2201V16.2701H207.58V20.2201H203.95V42.4001H200.11V20.2201H196.49Z" fill="#C41718"/>
<path d="M209.08 16.2701C209.08 16.2701 212.74 16.2701 212.92 16.2701C216.26 16.2701 219.67 18.0801 219.67 24.0901C219.67 30.1001 216.26 31.9501 212.92 31.9501V42.4001H209.08V16.2701ZM212.92 28.0401C215.34 28.0401 215.8 27.1501 215.8 24.2401C215.8 21.3301 215.34 20.1901 212.92 20.1901V28.0401Z" fill="#C41718"/>
<path d="M221.34 39.4201C221.34 39.4201 221.62 39.4901 222.19 39.4901C223.68 39.3501 224.15 37.7101 224.15 36.2901L220.49 16.2701H224.37L226.33 30.7001L226.4 31.7001H226.54L226.61 30.7001L228.21 16.2701H231.73L228.64 37.1801C228.28 39.8801 225.8 42.6901 222.95 42.6901C222.56 42.6901 221.35 42.6201 221.35 42.6201V39.4201H221.34Z" fill="#C41718"/>
<path d="M237.87 16.2701V24.9801V26.1201H238.01L238.19 24.9801L241.39 16.2701H245.12L241.6 24.8701L245.58 42.4001H241.85L239.18 31.0201L239.07 30.4901H238.96L238.75 31.0201L237.86 33.1501V42.3901H234.02C234.02 34.2101 234.02 16.2601 234.02 16.2601H237.87V16.2701Z" fill="#C41718"/>
<path d="M256.11 42.4001H247.36V16.2701H251.2V38.4601H254.19V16.2701H258.03V38.4601H259.95V46.8101H256.11V42.4001Z" fill="#C41718"/>
<path d="M264.79 42.4001H261.38V16.2701H264.9V29.8901V31.1001H265.11L265.43 29.8901L269.16 16.2701H272.57V42.4001H269.05V28.7901V27.5801H268.84L268.52 28.7901L264.79 42.4001Z" fill="#C41718"/>
<path d="M275.06 42.4001L277.51 29.7401C276.05 28.7401 275.38 26.4001 275.38 23.8001C275.38 18.8901 277.37 16.2601 281.92 16.2601H285.76V42.4001H281.92V31.3801H280.89L278.9 42.4001H275.06ZM281.92 27.8301V20.0801C280.85 20.0801 279.08 20.2201 279.08 23.9601C279.08 27.7001 280.86 27.8301 281.92 27.8301Z" fill="#C41718"/>
<path d="M26.92 62.83L13.55 55.66V24.03L26.92 31.2V62.83Z" fill="#C41718"/>
<path d="M28.71 62.83L42.08 55.66V24.03L28.71 31.2V62.83Z" fill="#C41718"/>
<path d="M28.67 1.32003L27.81 0.840027L26.96 1.32003L0.300049 16.41V42.25L10.09 47.5V21.62L27.81 11.59L45.5401 21.62V47.5L55.32 42.25V16.41L28.67 1.32003Z" fill="#C41718"/>
<path d="M289.61 49.46H60.7301L35.8201 62.83H289.61V49.46Z" fill="#5A2019"/>
<path d="M61 53.93V55.51C61 56.21 60.9699 56.68 60.9399 57.29H60.9799C61.2199 56.77 61.34 56.45 61.58 55.99L62.66 53.93H64.01V58.34H62.9499V56.77C62.9499 56.06 62.9799 55.74 63.0199 54.91H62.98C62.76 55.43 62.62 55.75 62.4 56.18C62.07 56.83 61.6599 57.63 61.2799 58.35H59.95V53.94H61V53.93Z" fill="white"/>
<path d="M68.31 55.72H68.83C69.45 55.72 69.8 55.48 69.8 55.16C69.8 54.84 69.5 54.64 69 54.64C68.63 54.64 68.22 54.77 67.91 54.95L67.67 54.29C68.16 54 68.76 53.87 69.32 53.87C70.07 53.87 70.98 54.16 70.98 55.04C70.98 55.6 70.46 55.93 70.01 56.03V56.06C70.6 56.11 71.18 56.47 71.18 57.12C71.18 58.14 70.03 58.46 69.13 58.46C68.56 58.46 67.97 58.32 67.54 58.07L67.79 57.36C68.1 57.53 68.57 57.66 69.01 57.67C69.63 57.67 69.96 57.41 69.96 57.07C69.96 56.6 69.48 56.45 68.86 56.45H68.32V55.72H68.31Z" fill="white"/>
<path d="M77.7 53.93V54.81H75.9V58.34H74.79V53.93H77.7Z" fill="white"/>
<path d="M85.19 56.1C85.19 57.72 84.05 58.44 82.93 58.44C81.69 58.44 80.72 57.59 80.72 56.17C80.72 54.72 81.67 53.84 83 53.84C84.31 53.83 85.19 54.76 85.19 56.1ZM81.87 56.14C81.87 56.99 82.3 57.63 82.96 57.63C83.59 57.63 84.04 57.01 84.04 56.12C84.04 55.43 83.73 54.64 82.97 54.64C82.19 54.64 81.87 55.41 81.87 56.14Z" fill="white"/>
<path d="M91.98 53.93V54.79H90.66V58.34H89.55V54.79H88.23V53.93H91.98Z" fill="white"/>
<path d="M99.44 56.1C99.44 57.72 98.3 58.44 97.18 58.44C95.94 58.44 94.97 57.59 94.97 56.17C94.97 54.72 95.92 53.84 97.25 53.84C98.56 53.83 99.44 54.76 99.44 56.1ZM96.11 56.14C96.11 56.99 96.54 57.63 97.2 57.63C97.83 57.63 98.28 57.01 98.28 56.12C98.28 55.43 97.97 54.64 97.21 54.64C96.43 54.64 96.11 55.41 96.11 56.14Z" fill="white"/>
<path d="M103.06 53.99C103.39 53.94 104.06 53.88 104.67 53.88C105.41 53.88 106.74 53.98 106.74 54.99C106.74 55.55 106.31 55.87 105.84 55.97V55.99C106.5 56.09 106.94 56.45 106.94 57.07C106.94 58.27 105.35 58.4 104.47 58.4C103.91 58.4 103.32 58.36 103.06 58.35V53.99ZM104.15 57.67C104.33 57.69 104.47 57.69 104.68 57.69C105.19 57.69 105.8 57.56 105.8 57.04C105.8 56.55 105.31 56.39 104.61 56.39H104.14V57.67H104.15ZM104.15 55.72H104.61C105.17 55.72 105.64 55.57 105.64 55.14C105.64 54.79 105.33 54.6 104.68 54.6C104.45 54.6 104.31 54.62 104.15 54.64V55.72Z" fill="white"/>
<path d="M114.23 53.93V58.34H113.12V54.79H111.92V55.74C111.92 56.89 111.79 57.67 111.27 58.06C111.02 58.3 110.69 58.42 110.17 58.42L110.05 57.55C110.24 57.52 110.41 57.44 110.52 57.34C110.85 57.06 110.88 56.55 110.88 55.7V53.93H114.23Z" fill="white"/>
<path d="M118.91 56.45C118.94 57.25 119.55 57.59 120.27 57.59C120.79 57.59 121.15 57.51 121.49 57.39L121.65 58.15C121.27 58.31 120.75 58.43 120.11 58.43C118.68 58.43 117.84 57.55 117.84 56.2C117.84 54.98 118.58 53.83 119.99 53.83C121.42 53.83 121.89 55.01 121.89 55.97C121.89 56.18 121.87 56.34 121.85 56.44H118.91V56.45ZM120.85 55.67C120.86 55.26 120.68 54.59 119.94 54.59C119.25 54.59 118.96 55.21 118.92 55.67H120.85Z" fill="white"/>
<path d="M126.62 53.93V55.61H128.32V53.93H129.43V58.34H128.32V56.48H126.62V58.34H125.51V53.93H126.62Z" fill="white"/>
<path d="M134.39 53.93V55.51C134.39 56.21 134.36 56.68 134.33 57.29H134.37C134.61 56.77 134.73 56.45 134.97 55.99L136.05 53.93H137.4V58.34H136.34V56.77C136.34 56.06 136.37 55.74 136.41 54.91H136.37C136.15 55.43 136.01 55.75 135.79 56.18C135.46 56.83 135.05 57.63 134.67 58.35H133.34V53.94H134.39V53.93Z" fill="white"/>
<path d="M142.07 56.45C142.1 57.25 142.71 57.59 143.43 57.59C143.95 57.59 144.31 57.51 144.65 57.39L144.81 58.15C144.43 58.31 143.91 58.43 143.27 58.43C141.84 58.43 141 57.55 141 56.2C141 54.98 141.74 53.83 143.15 53.83C144.58 53.83 145.05 55.01 145.05 55.97C145.05 56.18 145.03 56.34 145.01 56.44H142.07V56.45ZM144.01 55.67C144.02 55.26 143.84 54.59 143.1 54.59C142.41 54.59 142.12 55.21 142.08 55.67H144.01Z" fill="white"/>
<path d="M153.38 53.93H154.78L155.4 55.85C155.49 56.13 155.65 56.63 155.74 57H155.76C155.85 56.68 156.04 56.1 156.19 55.66L156.77 53.93H158.17L158.46 58.34H157.42L157.34 56.42C157.32 56 157.29 55.39 157.28 54.86H157.25C157.1 55.37 157.03 55.6 156.8 56.3L156.09 58.28H155.28L154.64 56.34C154.51 55.92 154.35 55.28 154.24 54.87H154.2C154.19 55.41 154.17 56.01 154.15 56.44L154.06 58.33H153.06L153.38 53.93Z" fill="white"/>
<path d="M162.93 56.45C162.96 57.25 163.57 57.59 164.29 57.59C164.81 57.59 165.17 57.51 165.51 57.39L165.67 58.15C165.29 58.31 164.76 58.43 164.13 58.43C162.7 58.43 161.86 57.55 161.86 56.2C161.86 54.98 162.6 53.83 164.01 53.83C165.44 53.83 165.91 55.01 165.91 55.97C165.91 56.18 165.89 56.34 165.87 56.44H162.93V56.45ZM164.86 55.67C164.87 55.26 164.69 54.59 163.95 54.59C163.26 54.59 162.97 55.21 162.93 55.67H164.86Z" fill="white"/>
<path d="M172.73 53.93V54.79H171.41V58.34H170.3V54.79H168.98V53.93H172.73Z" fill="white"/>
<path d="M179.45 57.28C179.45 57.68 179.47 58.07 179.52 58.34H178.52L178.44 57.85H178.41C178.15 58.19 177.69 58.44 177.11 58.44C176.22 58.44 175.73 57.8 175.73 57.13C175.73 56.03 176.72 55.46 178.35 55.46V55.39C178.35 55.1 178.23 54.62 177.45 54.62C177.02 54.62 176.56 54.76 176.26 54.95L176.04 54.23C176.37 54.03 176.94 53.84 177.63 53.84C179.04 53.84 179.45 54.74 179.45 55.7V57.28ZM178.36 56.19C177.57 56.18 176.82 56.34 176.82 57.01C176.82 57.44 177.1 57.64 177.45 57.64C177.9 57.64 178.22 57.35 178.33 57.03C178.36 56.95 178.36 56.87 178.36 56.78V56.19Z" fill="white"/>
<path d="M187 53.93V58.34H185.89V54.79H184.69V55.74C184.69 56.89 184.56 57.67 184.04 58.06C183.79 58.3 183.46 58.42 182.94 58.42L182.82 57.55C183.01 57.52 183.18 57.44 183.29 57.34C183.62 57.06 183.65 56.55 183.65 55.7V53.93H187Z" fill="white"/>
<path d="M194.53 53.93V58.34H193.42V54.79H192.22V55.74C192.22 56.89 192.09 57.67 191.57 58.06C191.32 58.3 190.99 58.42 190.47 58.42L190.35 57.55C190.54 57.52 190.71 57.44 190.82 57.34C191.15 57.06 191.18 56.55 191.18 55.7V53.93H194.53Z" fill="white"/>
<path d="M202.61 56.1C202.61 57.72 201.47 58.44 200.35 58.44C199.11 58.44 198.14 57.59 198.14 56.17C198.14 54.72 199.09 53.84 200.42 53.84C201.73 53.83 202.61 54.76 202.61 56.1ZM199.29 56.14C199.29 56.99 199.72 57.63 200.38 57.63C201.01 57.63 201.46 57.01 201.46 56.12C201.46 55.43 201.15 54.64 200.39 54.64C199.61 54.64 199.29 55.41 199.29 56.14Z" fill="white"/>
<path d="M207.36 53.93V55.76H207.52L208.88 53.93H210.2L208.45 55.87C209.06 55.96 209.43 56.43 209.73 57.14C209.87 57.47 210.02 57.95 210.23 58.34H209.07C208.95 58.15 208.83 57.82 208.66 57.4C208.42 56.79 208.08 56.5 207.51 56.5H207.37V58.34H206.26V53.93H207.36Z" fill="white"/>
<path d="M217.68 56.1C217.68 57.72 216.54 58.44 215.42 58.44C214.18 58.44 213.21 57.59 213.21 56.17C213.21 54.72 214.16 53.84 215.49 53.84C216.8 53.83 217.68 54.76 217.68 56.1ZM214.36 56.14C214.36 56.99 214.79 57.63 215.45 57.63C216.08 57.63 216.53 57.01 216.53 56.12C216.53 55.43 216.22 54.64 215.46 54.64C214.67 54.64 214.36 55.41 214.36 56.14Z" fill="white"/>
<path d="M222.41 53.93V55.61H224.11V53.93H225.22V58.34H224.11V56.48H222.41V58.34H221.3V53.93H222.41Z" fill="white"/>
<path d="M232.37 58.2C232.13 58.31 231.67 58.43 231.12 58.43C229.74 58.43 228.85 57.54 228.85 56.18C228.85 54.86 229.76 53.84 231.3 53.84C231.71 53.84 232.12 53.93 232.38 54.04L232.18 54.88C232 54.79 231.74 54.71 231.34 54.71C230.49 54.71 229.98 55.33 229.99 56.14C229.99 57.05 230.58 57.56 231.34 57.56C231.72 57.56 232 57.48 232.22 57.39L232.37 58.2Z" fill="white"/>
<path d="M239.32 53.93V54.79H238V58.34H236.89V54.79H235.57V53.93H239.32Z" fill="white"/>
<path d="M242.68 55.4C242.68 54.82 242.66 54.35 242.64 53.93H243.62L243.67 54.61H243.69C244.02 54.11 244.53 53.83 245.2 53.83C246.21 53.83 247.06 54.7 247.06 56.07C247.06 57.66 246.06 58.43 245.05 58.43C244.5 58.43 244.04 58.19 243.81 57.84H243.79V60.12H242.68V55.4ZM243.79 56.49C243.79 56.6 243.8 56.7 243.82 56.8C243.94 57.25 244.33 57.58 244.81 57.58C245.52 57.58 245.93 56.99 245.93 56.12C245.93 55.34 245.55 54.71 244.83 54.71C244.37 54.71 243.94 55.04 243.83 55.53C243.81 55.62 243.79 55.72 243.79 55.81V56.49Z" fill="white"/>
<path d="M251.26 53.93L252.05 56.29C252.14 56.56 252.24 56.9 252.3 57.14H252.33C252.39 56.9 252.47 56.56 252.57 56.28L253.26 53.93H254.45L253.35 56.93C252.74 58.58 252.34 59.31 251.82 59.76C251.38 60.14 250.92 60.28 250.65 60.32L250.4 59.39C250.59 59.35 250.82 59.25 251.04 59.08C251.26 58.94 251.5 58.68 251.66 58.38C251.7 58.3 251.72 58.24 251.72 58.18C251.72 58.13 251.71 58.07 251.67 57.96L250.05 53.92H251.26V53.93Z" fill="white"/>
<path d="M258.91 53.93V55.76H259.07L260.43 53.93H261.75L260 55.87C260.61 55.96 260.98 56.43 261.28 57.14C261.42 57.47 261.57 57.95 261.78 58.34H260.62C260.5 58.15 260.38 57.82 260.21 57.4C259.97 56.79 259.63 56.5 259.06 56.5H258.91V58.34H257.8V53.93H258.91Z" fill="white"/>
<path d="M266.21 53.93V57.48H267.87V53.93H268.99V57.53L269.46 57.55L269.41 59.75H268.56L268.52 58.34H265.1V53.93H266.21Z" fill="white"/>
<path d="M274.05 53.93V55.51C274.05 56.21 274.02 56.68 273.99 57.29H274.03C274.27 56.77 274.39 56.45 274.63 55.99L275.71 53.93H277.06V58.34H276V56.77C276 56.06 276.03 55.74 276.07 54.91H276.03C275.81 55.43 275.67 55.75 275.45 56.18C275.12 56.83 274.71 57.63 274.33 58.35H273V53.94H274.05V53.93Z" fill="white"/>
<path d="M282 53.93V55.51C282 56.21 281.97 56.68 281.94 57.29H281.98C282.22 56.77 282.34 56.45 282.58 55.99L283.66 53.93H285V58.34H283.94V56.77C283.94 56.06 283.97 55.74 284.01 54.91H283.97C283.75 55.43 283.61 55.75 283.39 56.18C283.06 56.83 282.65 57.63 282.27 58.35H280.94V53.94H282V53.93ZM282.46 52.13C282.48 52.52 282.64 52.79 282.95 52.79C283.28 52.79 283.44 52.52 283.48 52.13H284.21C284.17 52.93 283.68 53.33 282.93 53.33C282.12 53.33 281.75 52.83 281.72 52.13H282.46Z" fill="white"/>
</svg>
