<svg width="72" height="90" viewBox="0 0 72 90" fill="none" xmlns="http://www.w3.org/2000/svg">
<path d="M68.6165 63.2527C67.8406 63.9198 66.522 64.0121 65.5434 63.9251C63.5178 63.7451 61.4042 62.851 60.0911 61.2748C59.7203 60.8302 59.4239 60.3216 59.0776 59.8573C58.298 58.8104 57.2564 57.8396 56.1609 57.1201C54.5527 56.0634 52.707 55.6693 50.8848 55.1499C50.5527 55.0577 50.2255 54.9507 49.9036 54.829C49.5814 54.7071 49.2654 54.5705 48.9563 54.4201C48.6466 54.2692 48.3448 54.1048 48.0511 53.9266C47.7569 53.7484 47.4714 53.5573 47.1953 53.3531C44.7812 51.5929 44.0297 49.8458 43.3259 47.0387C43.0815 45.6717 43.0621 44.2245 42.6563 42.896C42.3572 41.9168 41.8455 40.9895 41.2417 40.1621C41.172 40.0671 41.1003 39.974 41.0264 39.8817C40.953 39.7895 40.8777 39.699 40.8003 39.6099C40.7232 39.5208 40.6443 39.4335 40.5636 39.3471C40.4829 39.2611 40.4004 39.1765 40.3167 39.0936C40.2328 39.0103 40.1471 38.9294 40.0601 38.8497C39.9731 38.7699 39.8842 38.692 39.794 38.6155C39.7038 38.5393 39.6123 38.4649 39.5189 38.392C39.426 38.3195 39.3312 38.2487 39.2356 38.1794C39.1395 38.1103 39.0421 38.0432 38.9437 37.9774C38.8449 37.9121 38.7452 37.8489 38.6441 37.787C38.5431 37.7257 38.4405 37.6662 38.3372 37.6088C38.2494 37.5596 38.1604 37.513 38.0711 37.4674C38.0553 37.4588 38.0399 37.4499 38.0236 37.4418C37.918 37.3881 37.8115 37.3366 37.7036 37.287C37.5961 37.2377 37.4873 37.1902 37.3777 37.1451C37.2684 37.0994 37.1583 37.0563 37.0467 37.0151C36.9353 36.974 36.8238 36.935 36.7109 36.8983C35.9363 36.644 35.1345 36.4684 34.3649 36.2002C32.8514 35.6724 31.327 34.8485 30.1195 33.7976C29.3427 33.1214 28.6329 32.3339 28.0092 31.4696C26.121 28.8551 28.4543 25.3097 31.634 25.9814L31.7014 25.9958C32.4802 26.1605 33.2498 26.3647 34.0285 26.5286C34.945 26.8609 35.8824 27.0968 36.7758 27.4975C39.6681 28.7961 41.9765 31.2861 43.3072 34.1042C43.9282 35.418 44.1789 35.2814 44.4278 35.5989C47.9817 34.7812 52.2815 35.3397 55.4207 37.248C59.1194 39.4957 59.2989 42.7205 60.6744 46.3461C61.101 47.4695 61.7732 48.597 62.3751 49.638C63.6329 51.8132 65.218 53.7337 66.8565 55.634C67.5926 56.487 68.3287 57.3663 69.1196 58.1692C68.3473 58.0339 66.9358 57.6507 66.2451 58.1204C65.984 58.2977 65.7737 58.6756 65.741 58.9859C65.7066 59.311 65.8657 59.6021 66.0751 59.8407C67.0482 60.9506 69.1006 61.2301 69.3965 61.5306C69.4849 61.6197 69.5104 61.7329 69.5089 61.8521C69.5021 62.3463 68.9705 62.9482 68.6165 63.2527ZM37.8011 11.4036C38.1486 11.3459 38.4977 11.2989 38.8485 11.263C39.1994 11.2272 39.5506 11.2022 39.9028 11.1882C40.2555 11.1739 40.6077 11.1712 40.9598 11.1793C41.3124 11.1873 41.6642 11.2066 42.0155 11.2366C41.176 10.9245 40.4 10.4288 39.5702 10.0814C36.9707 8.99333 34.7085 8.96071 31.9553 9.05197C33.1705 8.63959 34.383 8.47078 35.654 8.34626C34.8937 8.17885 34.1514 7.92856 33.3895 7.75797C32.9234 7.65453 32.4547 7.56454 31.9835 7.48749C31.512 7.41045 31.0388 7.34648 30.5642 7.29584C30.0892 7.24481 29.6128 7.20762 29.136 7.183C28.6587 7.15889 28.1815 7.1481 27.7037 7.15076C21.8411 7.14404 16.0164 8.75153 11.3486 12.3323C10.3636 13.0877 9.46757 13.9455 8.5854 14.8142C10.3212 11.9575 13.8627 9.23512 16.807 7.67204C18.2096 6.92738 19.6924 6.33806 21.192 5.81336C23.2373 5.26936 25.2784 4.88643 27.3995 4.79555C32.6941 4.56899 38.2171 6.20289 42.7815 8.79989C42.9655 8.90689 43.1486 9.01566 43.3295 9.12672C43.5113 9.23829 43.6912 9.35151 43.8697 9.46701C44.0483 9.58213 44.2255 9.69992 44.4014 9.81948C44.5773 9.93942 44.7514 10.0608 44.9241 10.1848C45.0968 10.3089 45.268 10.4347 45.438 10.5622C45.6076 10.6903 45.7757 10.8202 45.9421 10.9523C46.1088 11.0839 46.2738 11.2183 46.437 11.354C46.6002 11.4896 46.7615 11.6275 46.9216 11.7673C47.0816 11.9069 47.2397 12.0484 47.3961 12.1922C47.5525 12.3354 47.707 12.481 47.8598 12.6283C48.013 12.7752 48.1639 12.9242 48.3131 13.0751C48.4621 13.226 48.6095 13.3783 48.755 13.5328C48.9009 13.6872 49.0442 13.843 49.186 14.0006C49.3275 14.1583 49.4675 14.3181 49.6054 14.4789C49.7431 14.6401 49.8787 14.8025 50.0124 14.9669C50.1461 15.1313 50.278 15.2974 50.4076 15.4648C50.5377 15.6322 50.6655 15.8011 50.791 15.9716C50.9162 16.1418 51.0399 16.3142 51.1613 16.4875C51.2829 16.6608 51.4021 16.8359 51.519 17.0123C51.6365 17.1882 51.7516 17.366 51.8639 17.5451C51.9768 17.7242 52.0874 17.9042 52.1958 18.0861C52.3041 18.2678 52.4106 18.4505 52.5144 18.635C52.6182 18.8191 52.7197 19.0044 52.819 19.1911C52.9187 19.3778 53.0157 19.5659 53.1104 19.7549C53.2051 19.9434 53.2976 20.1336 53.3878 20.3249C53.478 20.516 53.5655 20.7081 53.6507 20.9015C53.7364 21.0946 53.8198 21.2889 53.9005 21.4841C53.9812 21.6793 54.0592 21.8754 54.1352 22.0724C54.2109 22.2699 54.2844 22.4678 54.3556 22.6667C54.4267 22.8654 54.4951 23.0652 54.5613 23.2652C54.6274 23.4659 54.6909 23.6673 54.7521 23.8693C54.8137 24.0712 54.8722 24.2742 54.9289 24.4774C55.3079 25.8794 55.5739 27.2639 55.8001 28.6966C54.3827 26.1506 52.7224 24.2951 49.9158 23.2859C51.2947 23.3571 52.3218 23.4941 53.4431 24.3574C51.6228 22.0456 49.5654 20.1219 46.7847 18.9739C48.1838 19.0093 49.4562 19.3075 50.7195 19.9058C50.5825 19.7522 50.4249 19.5202 50.2612 19.4024C50.1148 19.3567 50.0368 19.325 49.9267 19.213C47.6572 16.9111 46.4502 16.1888 43.3494 15.0967L43.3807 14.9543C44.0175 14.7646 44.7812 15.0305 45.3677 14.8326L45.4013 14.7318C45.1153 14.1949 43.7505 13.6648 43.1975 13.3805L43.2093 13.2744C41.4951 12.4469 39.6893 11.7157 37.8011 11.4036ZM71.9584 58.2937C71.8778 57.9726 71.7073 57.6798 71.5142 57.4134C71.1362 56.8931 70.6603 56.4234 70.2292 55.9442C69.4763 55.1078 68.723 54.2478 68.0604 53.3396C67.5609 52.6662 67.0981 51.9691 66.6711 51.2485C66.2442 50.5281 65.8556 49.7884 65.5058 49.0286C64.408 46.6488 63.8106 43.9197 64.0503 41.2998C64.1392 40.3312 64.4089 39.1949 64.2339 38.229C64.0277 37.0918 63.2359 35.8362 62.6475 34.843C62.3538 34.3465 61.9961 33.8325 61.8548 33.2678C61.6104 32.2899 61.7365 30.8424 61.6667 29.7977C61.5964 28.7258 61.4799 27.6582 61.3163 26.5962C61.1526 25.5341 60.9432 24.4805 60.6871 23.4363C59.4004 18.1841 56.6246 13.051 52.761 9.19704C50.8945 7.33569 48.7695 5.77617 46.5091 4.41681C40.5428 0.828398 32.9602 -0.67515 26.0568 0.282114C25.2833 0.389619 24.4935 0.491667 23.7342 0.67393C22.8403 0.821671 21.9725 1.06435 21.1034 1.31376C20.9034 1.3729 20.7037 1.43421 20.5051 1.49742C20.3063 1.5605 20.1082 1.62586 19.911 1.69301C19.7134 1.76015 19.5168 1.82958 19.3209 1.90078C19.1249 1.97199 18.9298 2.04548 18.7351 2.12062C18.5407 2.19588 18.3472 2.27293 18.1544 2.35213C17.9614 2.43133 17.769 2.51243 17.5782 2.59569C17.3871 2.67858 17.1966 2.76362 17.0075 2.85043C16.8184 2.93776 16.6296 3.02648 16.4419 3.11735C16.2546 3.20785 16.0682 3.30051 15.8824 3.39494C15.6969 3.48988 15.5123 3.58621 15.3286 3.68471C15.1451 3.78269 14.9626 3.88309 14.7811 3.98514C14.5996 4.08718 14.4191 4.19114 14.2397 4.29674C14.0604 4.40247 13.8821 4.50984 13.7051 4.61913C13.528 4.72841 13.3523 4.83947 13.1773 4.95268C13.0025 5.06552 12.8291 5.18026 12.6567 5.29665C12.4842 5.41304 12.313 5.53121 12.143 5.65077C11.973 5.77084 11.8046 5.89256 11.6371 6.01568C11.4696 6.1393 11.3036 6.26419 11.1389 6.39099C10.974 6.51766 10.8105 6.64611 10.6485 6.77608C10.4863 6.90593 10.3257 7.03793 10.1661 7.17094C10.0068 7.30434 9.84891 7.43914 9.69242 7.57571C9.53567 7.71228 9.38059 7.85024 9.22666 7.98986C9.07325 8.1296 8.92113 8.27113 8.77003 8.41353C8.61958 8.55632 8.47028 8.70089 8.32265 8.84647C8.17464 8.99244 8.02855 9.1398 7.88375 9.28843C7.73908 9.43705 7.59621 9.58746 7.45474 9.73888C7.31316 9.89068 7.17311 10.0438 7.03473 10.1982C6.89648 10.3527 6.75977 10.5091 6.62448 10.6662C6.48932 10.8233 6.35608 10.9822 6.22425 11.1422C6.0923 11.302 5.96241 11.4637 5.83379 11.6261C5.70544 11.7887 5.57888 11.9531 5.45361 12.1178C5.32859 12.2831 5.20538 12.4496 5.08396 12.6175C1.16906 18.0337 -0.810618 24.9041 0.311945 31.5279C0.336614 31.6742 0.362439 31.8207 0.390191 31.967C0.417687 32.113 0.446724 32.259 0.477304 32.4046C0.508011 32.55 0.540003 32.6951 0.573281 32.8402C0.606943 32.9849 0.642147 33.1294 0.678765 33.2736C0.715255 33.4178 0.753414 33.5616 0.792859 33.7053C0.83256 33.8486 0.873548 33.9914 0.916076 34.1338C0.958604 34.2767 1.00267 34.4186 1.04816 34.5605C1.09325 34.7024 1.14028 34.8435 1.18872 34.984C1.23703 35.1247 1.28701 35.2653 1.33814 35.4051C1.38967 35.5443 1.44209 35.6835 1.49644 35.8228C1.55066 35.9611 1.60603 36.0995 1.66321 36.2369C1.72025 36.3744 1.77884 36.5109 1.83872 36.6475C1.89833 36.7837 1.95975 36.9198 2.02245 37.0546C2.08541 37.1897 2.14926 37.3245 2.21479 37.4584C2.28032 37.5918 2.347 37.7254 2.41522 37.8574C2.48358 37.9904 2.55309 38.122 2.62388 38.2532C2.69519 38.384 2.76727 38.5142 2.84102 38.6442C2.91464 38.7735 2.98955 38.9025 3.06599 39.0305C3.14231 39.1586 3.2203 39.2858 3.29906 39.4124C3.37808 39.5392 3.45826 39.6645 3.53984 39.7895C3.62143 39.9144 3.7043 40.0384 3.78833 40.1615C3.87249 40.2852 3.95793 40.4074 4.04466 40.5287C4.13125 40.6501 4.21939 40.7709 4.30818 40.8905C4.39773 41.01 4.48793 41.1292 4.57953 41.2469C4.67114 41.3647 4.76416 41.4816 4.85821 41.598C4.95227 41.714 5.04747 41.8291 5.14396 41.9428C5.24007 42.0569 5.33797 42.1703 5.43678 42.2822C5.53558 42.3942 5.63567 42.5056 5.73679 42.6153C5.8379 42.7254 5.94005 42.8347 6.04348 42.9426C6.14665 43.0505 6.25111 43.1576 6.35659 43.2637C6.46233 43.3693 7.50395 43.2995 6.86783 42.0462C4.72048 37.8175 4.21425 33.0561 5.17942 28.4445C5.21373 28.2847 5.2506 28.1253 5.28876 27.9659C5.32757 27.807 5.36804 27.6484 5.41031 27.4904C5.45284 27.3323 5.49704 27.1746 5.54342 27.0175C5.5898 26.8604 5.63798 26.7041 5.68822 26.5483C5.73833 26.3924 5.79024 26.237 5.84459 26.0826C5.89842 25.9281 5.95431 25.7741 6.01213 25.6209C6.06995 25.4674 6.12995 25.3152 6.19162 25.1634C6.25329 25.0116 6.31663 24.8602 6.38178 24.7103C6.44704 24.5597 6.51424 24.4102 6.58362 24.2616C6.65262 24.113 6.72329 23.9651 6.79626 23.8182C6.86886 23.6714 6.94338 23.525 7.0197 23.3803C7.09615 23.2349 7.17426 23.0907 7.25418 22.9474C7.33397 22.8041 7.41556 22.6617 7.49881 22.5207C7.58259 22.3792 7.66751 22.239 7.7545 22.0998C7.84148 21.961 7.93014 21.8226 8.02046 21.6855C8.11066 21.5486 8.20278 21.4125 8.29631 21.2777C8.39011 21.1429 8.48544 21.009 8.58232 20.8765C8.6792 20.744 8.77787 20.6128 8.87821 20.482C8.97843 20.3522 9.08032 20.2232 9.18388 20.0955C9.28731 19.968 9.39215 19.8413 9.49866 19.7163C9.60543 19.591 9.71323 19.4669 9.82321 19.3447C9.93281 19.222 10.0438 19.1007 10.1562 18.9806C10.2689 18.8611 10.3833 18.7424 10.4987 18.6256C10.6142 18.5082 10.7315 18.3927 10.8499 18.2781C10.9683 18.1639 11.0881 18.051 11.2092 17.9396C11.3306 17.8282 11.4532 17.7184 11.5773 17.6101C11.7009 17.5012 11.8263 17.3947 11.953 17.289C12.0793 17.1838 12.2072 17.0799 12.3367 16.9774C12.4656 16.8753 12.596 16.7746 12.7276 16.6752C12.8594 16.5762 12.9923 16.4786 13.1263 16.3827C13.2604 16.2865 13.3958 16.1925 13.5322 16.0993C13.6686 16.0067 13.8061 15.9158 13.9447 15.8266C14.0709 15.7447 14.1982 15.6645 14.3263 15.5858C14.4544 15.507 14.5835 15.4299 14.7137 15.3543C14.844 15.2785 14.9748 15.2046 15.1069 15.1325C15.2389 15.0601 15.3717 14.9894 15.5054 14.9203C15.6393 14.8514 15.7737 14.7837 15.9094 14.718C16.0449 14.6521 16.181 14.5882 16.3183 14.5258C16.4554 14.4636 16.5932 14.4027 16.7317 14.3436C16.8702 14.2846 17.0096 14.2272 17.1494 14.1717C17.2894 14.1157 17.4305 14.0621 17.5719 14.01C17.713 13.9577 17.8551 13.9075 17.9979 13.8587C18.1406 13.8099 18.2839 13.7633 18.4274 13.7181C18.5713 13.6729 18.716 13.6295 18.8606 13.5879C19.0057 13.5462 19.1511 13.5064 19.297 13.4683C19.4431 13.4306 19.5894 13.3939 19.7363 13.3599C19.8831 13.325 20.0301 13.2928 20.1781 13.2618C20.3257 13.231 20.4737 13.2019 20.6221 13.1745C20.7705 13.1477 20.9193 13.1222 21.0681 13.0988C21.2173 13.0751 21.3667 13.0531 21.5163 13.0335C21.666 13.0133 21.8158 12.9954 21.9657 12.9793C22.1159 12.9631 22.266 12.9488 22.4164 12.9364C22.5668 12.9238 22.7173 12.913 22.8678 12.9045C23.0186 12.8956 23.1695 12.8884 23.3202 12.8834C23.4711 12.8781 23.6217 12.8749 23.7728 12.8737C23.9239 12.8723 24.0748 12.8728 24.2256 12.8749C24.3764 12.8772 24.5273 12.8813 24.6784 12.8875C24.8292 12.8933 24.9797 12.9015 25.1304 12.9112C25.2808 12.9206 25.4314 12.9323 25.5819 12.9458C25.7322 12.9592 25.8823 12.9744 26.0321 12.9914C26.1822 13.0085 26.3317 13.0276 26.4813 13.0483C26.6308 13.0689 26.78 13.0917 26.9286 13.1158C27.0777 13.1405 27.226 13.1665 27.3746 13.1947C27.5224 13.2228 27.6706 13.2529 27.8179 13.2843C29.1075 13.5498 30.4921 13.9639 31.6833 14.5246C32.1888 14.7618 32.6615 15.0735 33.1714 15.2987C36.4815 17.3777 38.2992 18.9946 40.5754 22.1517C41.385 23.2742 42.1618 24.4545 42.7094 25.7262C41.9783 26.332 41.1524 26.8106 40.425 27.4178C39.1133 26.4547 37.001 25.1306 35.387 24.8732C35.3669 24.8656 35.3475 24.8575 35.3271 24.8499C34.3612 24.4922 33.2856 24.3381 32.2743 24.15C28.6088 23.4691 26.7242 23.0231 24.0336 20.8344C23.6861 20.5518 23.1679 20.7936 23.1625 21.2382C23.1074 25.8744 24.3924 30.5655 27.5713 34.0904C27.9838 34.5476 28.4216 34.981 28.8831 35.3902C29.3445 35.7995 29.8276 36.1823 30.3326 36.5387C29.9025 38.1596 20.9392 46.633 22.7216 60.7174C26.1547 87.8495 56.1686 90.2274 56.1268 89.9849C56.0852 89.7422 49.5868 85.4782 47.6118 77.675C45.9906 71.2676 47.3263 65.6911 49.1258 62.2035C49.3094 61.848 49.7245 61.6599 50.1189 61.746C53.4994 62.4829 56.0802 63.9959 60.7915 66.0677C61.7696 66.4975 62.8311 66.7456 63.9017 66.7541C64.6042 66.7595 65.3041 66.7071 66.0116 66.5487C67.9715 66.1097 69.4637 64.9071 70.5093 63.2348C70.5859 63.112 70.6594 62.9871 70.7292 62.86C71.2472 61.9148 72.2117 59.3029 71.9584 58.2937Z" fill="#2A2929"/>
<path d="M51.2505 39.9473C51.5933 39.8903 51.984 39.8656 52.3271 39.9131C52.9455 40.0003 53.3846 40.3998 53.7629 41.029C52.9235 40.8189 51.9638 40.6127 51.2505 39.9473ZM53.289 38.9315C52.0675 38.1218 50.3481 38.3988 49 38C49.2629 39.4979 49.9594 41.0022 50.9573 41.8288C52.1338 42.8039 53.419 42.4006 54.4937 43.1781C55.126 43.6358 55.4391 44.4917 56 45C55.4594 42.9085 54.8982 39.9974 53.289 38.9315Z" fill="#2A2929"/>
<path d="M35.5827 31.3696C34.3927 30.665 35.2039 28.4757 36.4185 29.1159C36.4396 29.1273 36.4607 29.1384 36.481 29.1495C39.3886 30.7457 40.8918 33.4713 42 37C41.7492 36.851 40.9747 35.7716 40.6793 35.4552C39.8351 34.5505 38.9408 33.6483 37.9756 32.9393C37.199 32.3685 36.3983 31.8529 35.5827 31.3696Z" fill="#2A2929"/>
</svg>
