<svg width="98" height="73" viewBox="0 0 98 73" fill="none" xmlns="http://www.w3.org/2000/svg">
<path d="M97.965 19.9908C95.7394 13.3994 88.9844 -0.681733 72.0692 0.0256937C59.1936 0.564685 51.1478 17.352 51.0699 26.571C51.1478 28.7158 51.8711 29.6702 52.6835 30.2654C55.2876 32.1967 61.8088 35.1275 59.6833 41.2136C59.4496 41.8649 59.0601 42.5723 58.5482 42.999C52.5388 48.0408 50.5246 54.228 53.0174 61.8862C51.6708 63.0203 46.3403 63.0203 44.9938 61.8862C47.4865 54.228 45.4723 48.0408 39.4629 42.999C38.951 42.5611 38.5504 41.8649 38.3278 41.2136C36.2023 35.1275 42.7236 32.1967 45.3276 30.2654C46.1289 29.6702 46.8633 28.727 46.9412 26.571C46.8633 17.352 38.8175 0.564685 25.9419 0.0256937C9.02671 -0.681733 2.27175 13.3994 0.034941 19.9908C-0.176499 20.6084 0.624748 21.0351 1.01424 20.5186C4.33051 16.1056 11.6975 7.99827 21.0009 8.05442C35.045 8.14425 38.6283 21.9896 36.1133 28.7158C35.5346 30.2654 33.7763 35.004 30.9942 33.533C28.7797 32.3652 26.4649 29.2323 24.1391 28.3115C23.0263 27.8736 21.8133 29.8162 21.6241 31.7139C21.1456 36.6771 24.0167 40.742 28.6906 42.0446C29.4696 42.2579 30.1039 41.3933 29.6811 40.6971C29.1691 39.8437 28.8464 39.0015 29.6811 39.0015C31.9624 39.0015 36.002 48.3665 36.8032 50.9379C37.2929 52.4988 37.215 60.3815 37.7937 61.437C39.3739 64.3566 41.1545 67.1975 43.1131 69.87C44.7378 72.0821 46.7966 73.104 48.8331 72.9917C48.9444 72.9804 49.0668 72.9804 49.178 72.9917C51.2145 73.104 53.2622 72.0821 54.8981 69.87C56.8567 67.1975 58.6372 64.3566 60.2174 61.437C60.7961 60.3703 60.7182 52.4988 61.2079 50.9379C62.0091 48.3665 66.0487 39.0015 68.3301 39.0015C69.1647 39.0015 68.842 39.8437 68.3301 40.6971C67.9072 41.3933 68.5415 42.2691 69.3205 42.0446C73.9944 40.742 76.8544 36.6771 76.387 31.7139C76.209 29.8274 74.9849 27.8736 73.872 28.3115C71.5462 29.2323 69.2203 32.3652 67.0169 33.533C64.2348 35.004 62.4654 30.2541 61.8978 28.7158C59.3828 21.9784 62.9662 8.14425 77.0102 8.05442C86.3136 7.99827 93.6806 16.1056 96.9969 20.5186C97.3752 21.0351 98.1765 20.6084 97.965 19.9908ZM47.2528 70.3528C44.6488 69.6117 43.5693 68.2193 43.7808 65.5805C43.8475 64.7271 44.7935 64.2667 45.4945 64.7496C47.6646 66.2093 48.043 67.714 47.2528 70.3528ZM50.7472 70.3528C49.957 67.714 50.3354 66.2093 52.5054 64.7496C53.2065 64.278 54.1525 64.7383 54.2192 65.5805C54.4418 68.2193 53.3623 69.6117 50.7472 70.3528Z" fill="#1B1B1B"/>
</svg>
